<svg viewBox="0 0 140 140" fill="none" xmlns="http://www.w3.org/2000/svg">
<g filter="url(#filter0_dddd_2676_6256)">
<path d="M124.338 95.498L10.8423 71.7734L10.8304 71.8302L124.326 95.5548L124.338 95.498Z" fill="#EBEBEB"/>
<path d="M112.201 96.7727L104.683 95.2012L104.671 95.2579L112.189 96.8294L112.201 96.7727Z" fill="#EBEBEB"/>
<path d="M85.1322 91.759L83.1597 91.3467L83.1478 91.4034L85.1204 91.8158L85.1322 91.759Z" fill="#EBEBEB"/>
<path d="M104.896 93.0482L100.541 92.1377L100.529 92.1944L104.885 93.105L104.896 93.0482Z" fill="#EBEBEB"/>
<path d="M32.1519 78.2398L22.3481 76.1904L22.3363 76.2472L32.14 78.2965L32.1519 78.2398Z" fill="#EBEBEB"/>
<path d="M35.6097 78.9605L34.1729 78.6602L34.161 78.7169L35.5978 79.0173L35.6097 78.9605Z" fill="#EBEBEB"/>
<path d="M61.3475 85.3425L40.083 80.8975L40.0711 80.9542L61.3357 85.3992L61.3475 85.3425Z" fill="#EBEBEB"/>
<path d="M40.8781 62.8872L40.2043 66.1105L38.6355 66.8155L44.9912 68.1441L43.1194 66.9663L43.7956 63.7316L40.8781 62.8872Z" fill="#E0E0E0"/>
<path d="M28.7856 64.6602L26.6632 74.8135L55.0371 80.7446L57.1595 70.5913L28.7856 64.6602ZM55.8175 74.4614L33.6087 69.819L34.3024 66.5004L56.5112 71.1428L55.8175 74.4614Z" fill="#E0E0E0"/>
<path d="M33.7563 65.6992L31.6339 75.8525L55.0367 80.7445L57.1591 70.5912L33.7563 65.6992ZM55.8171 74.4614L33.6083 69.8189L34.302 66.5003L56.5108 71.1427L55.8171 74.4614Z" fill="#EBEBEB"/>
<path d="M56.513 71.1421L51.9346 70.1851L51.2409 73.5037L55.8193 74.4607L56.513 71.1421Z" fill="#E0E0E0"/>
<path d="M39.6195 69.3421L33.9561 68.1582L33.6092 69.8175L39.2726 71.0014L39.6195 69.3421Z" fill="#E0E0E0"/>
<path d="M44.1599 70.9941L39.897 70.103L39.691 71.0882L43.9539 71.9793L44.1599 70.9941Z" fill="#E0E0E0"/>
<path d="M49.4251 71.0207L45.3643 70.1719L44.9429 72.1876L49.0038 73.0364L49.4251 71.0207Z" fill="#E0E0E0"/>
<path d="M37.4796 71.3828L37.2763 71.7549L35.6465 71.4142L35.607 70.9913L33.4551 70.5415L32.5341 74.9474L39.6775 76.4406L40.5985 72.0347L37.4796 71.3828Z" fill="#E0E0E0"/>
<path d="M45.9696 73.1577L45.764 73.5293L44.1342 73.1886L44.0946 72.7657L40.978 72.1143L40.057 76.5202L47.2005 78.0134L48.1214 73.6075L45.9696 73.1577Z" fill="#E0E0E0"/>
<path d="M52.5299 74.5283L52.3266 74.9004L50.6968 74.5597L50.6572 74.1368L48.5054 73.687L47.5844 78.0929L54.7278 79.5861L55.6488 75.1802L52.5299 74.5283Z" fill="#E0E0E0"/>
<path d="M56.3389 53.8068L35.231 49.3945C34.7884 49.302 34.3547 49.5858 34.2622 50.0283L31.7289 62.1474C31.6364 62.5899 31.9201 63.0237 32.3627 63.1162L53.4706 67.5285C53.9131 67.621 54.3468 67.3372 54.4394 66.8947L56.9727 54.7756C57.0652 54.3331 56.7814 53.8994 56.3389 53.8068Z" fill="#E0E0E0"/>
<path d="M56.8706 53.9196L35.7627 49.5073C35.3202 49.4148 34.8864 49.6986 34.7939 50.1411L32.2606 62.2602C32.1681 62.7027 32.4519 63.1364 32.8944 63.229L54.0023 67.6413C54.4449 67.7338 54.8786 67.45 54.9711 67.0075L57.5044 54.8884C57.5969 54.4459 57.3132 54.0121 56.8706 53.9196Z" fill="#E6E6E6"/>
<path d="M54.2755 67.0034L56.8652 54.6143L35.4895 50.146L32.8997 62.5351L54.2755 67.0034Z" fill="#F0F0F0"/>
<path d="M87.1594 59.0085L107.484 63.2571C108.009 63.3664 108.506 63.5779 108.949 63.8795C109.391 64.1812 109.77 64.5671 110.063 65.0152C110.357 65.4633 110.559 65.9648 110.658 66.491C110.758 67.0173 110.752 67.558 110.643 68.0822L107.325 83.9534L79.0171 78.036L82.3348 62.1648C82.556 61.1065 83.1886 60.1794 84.0934 59.5874C84.9982 58.9955 86.1011 58.7872 87.1594 59.0085Z" fill="#E6E6E6"/>
<path d="M74.6997 68.6804L78.3316 69.4396C78.9607 69.5711 79.5118 69.9471 79.8636 70.485C80.2155 71.0228 80.3393 71.6784 80.2078 72.3075L77.4643 85.4321L69.0883 83.6813L71.8318 70.5566C71.9633 69.9275 72.3393 69.3764 72.8772 69.0246C73.415 68.6727 74.0706 68.5489 74.6997 68.6804Z" fill="#E0E0E0"/>
<path d="M74.6997 68.6804L74.7746 68.6961C75.4037 68.8276 75.9548 69.2036 76.3067 69.7414C76.6585 70.2793 76.7823 70.9349 76.6508 71.564L73.9073 84.6886L69.0883 83.6813L71.8318 70.5566C71.9633 69.9275 72.3393 69.3764 72.8772 69.0246C73.415 68.6727 74.0706 68.5489 74.6997 68.6804Z" fill="#EBEBEB"/>
<path d="M104.075 84.7036L76.1821 78.873L74.9219 84.9019L102.815 90.7325L104.075 84.7036Z" fill="#E6E6E6"/>
<path d="M104.2 78.9723L77.2988 73.3491C75.9675 73.0708 74.6626 73.9245 74.3843 75.2559L74.0697 76.7608C73.7914 78.0922 74.6451 79.3971 75.9764 79.6754L102.877 85.2986C104.209 85.5769 105.513 84.7232 105.792 83.3918L106.106 81.8869C106.385 80.5555 105.531 79.2506 104.2 78.9723Z" fill="#F5F5F5"/>
<path d="M104.154 78.9651L100.815 78.2671C99.4841 77.9888 98.1792 78.8425 97.9009 80.1738L97.5863 81.6788C97.308 83.0101 98.1617 84.315 99.493 84.5933L102.832 85.2913C104.163 85.5696 105.468 84.7159 105.747 83.3846L106.061 81.8796C106.34 80.5483 105.486 79.2434 104.154 78.9651Z" fill="#E0E0E0"/>
<path d="M105.34 75.0847L108.972 75.8439C109.601 75.9754 110.152 76.3514 110.504 76.8893C110.856 77.4271 110.98 78.0827 110.848 78.7118L108.105 91.8364L99.7289 90.0856L102.472 76.9609C102.538 76.6494 102.663 76.3538 102.843 76.0909C103.022 75.828 103.251 75.6031 103.518 75.4289C103.784 75.2546 104.082 75.1346 104.395 75.0755C104.708 75.0165 105.029 75.0196 105.34 75.0847Z" fill="#E0E0E0"/>
<path d="M105.34 75.0847L105.417 75.1008C106.047 75.2324 106.598 75.6084 106.95 76.1462C107.301 76.6841 107.425 77.3396 107.294 77.9687L104.55 91.0934L99.7289 90.0856L102.472 76.9609C102.538 76.6494 102.663 76.3538 102.843 76.0909C103.022 75.828 103.251 75.6031 103.518 75.4289C103.784 75.2546 104.082 75.1346 104.395 75.0755C104.708 75.0165 105.029 75.0196 105.34 75.0847Z" fill="#F0F0F0"/>
<path d="M87.5989 51.4663L114.527 57.0952L120.343 29.2706L93.4152 23.6417L87.5989 51.4663Z" fill="#EBEBEB"/>
<path d="M86.6555 51.2715L113.583 56.9004L119.4 29.0758L92.4719 23.4469L86.6555 51.2715Z" fill="#F0F0F0"/>
<path d="M118.58 29.591L93.0439 24.2529L87.5005 50.7723L113.037 56.1104L118.58 29.591Z" fill="#E0E0E0"/>
<path d="M118.585 29.5904L93.6865 24.3857L88.143 50.9051L113.042 56.1098L118.585 29.5904Z" fill="#F5F5F5"/>
<path d="M100.331 53.4562L100.837 53.562L106.38 27.0426L105.874 26.9368L100.331 53.4562Z" fill="#EBEBEB"/>
<path d="M102.974 26.3282L90.3347 51.3644L89.6538 51.222L102.293 26.1859L102.974 26.3282Z" fill="white"/>
<path d="M100.009 53.9167L100.443 54.0073L106.178 26.5709L105.745 26.4803L100.009 53.9167Z" fill="#F0F0F0"/>
<path d="M100.401 25.7893L88.4405 49.4819L91.324 35.6876L96.71 25.0178L100.401 25.7893Z" fill="white"/>
<path d="M118.078 31.9969L117.546 34.5438L107.265 54.9036L106.584 54.7612L118.078 31.9969Z" fill="white"/>
<path d="M117.006 37.1386L114.123 50.9329L111.656 55.8211L107.965 55.0496L117.006 37.1386Z" fill="white"/>
<path d="M41.6283 35.1791L57.9331 38.5874L62.0802 18.7484L45.7754 15.3401L41.6283 35.1791Z" fill="#E6E6E6"/>
<path d="M46.3869 31.0432L56.7139 24.4126L47.7656 20.9453L46.3869 31.0432Z" fill="#E0E0E0"/>
<path d="M55.1648 30.7944L56.9392 24.4253L50.1569 24.6612L48.6563 29.505L55.1648 30.7944Z" fill="#F0F0F0"/>
<path d="M50.0816 22.1713C51.3109 21.3671 51.6555 19.7186 50.8512 18.4893C50.047 17.26 48.3985 16.9154 47.1692 17.7196C45.9399 18.5238 45.5953 20.1723 46.3995 21.4016C47.2038 22.6309 48.8523 22.9755 50.0816 22.1713Z" fill="#FAFAFA"/>
<path d="M53.8412 32.9206C53.8935 32.6704 54.0188 32.4414 54.2013 32.2625C54.3838 32.0836 54.6153 31.9628 54.8664 31.9155C55.1176 31.8682 55.3771 31.8965 55.6122 31.9967C55.8473 32.097 56.0473 32.2647 56.1871 32.4787C56.3268 32.6927 56.3999 32.9433 56.3971 33.1989C56.3943 33.4544 56.3158 33.7034 56.1715 33.9143C56.0272 34.1252 55.8235 34.2886 55.5863 34.3837C55.3491 34.4789 55.089 34.5015 54.839 34.4487C54.673 34.4141 54.5156 34.347 54.3756 34.2514C54.2356 34.1558 54.1158 34.0335 54.0232 33.8916C53.9305 33.7496 53.8667 33.5908 53.8355 33.4242C53.8043 33.2576 53.8062 33.0865 53.8412 32.9206Z" fill="#E0E0E0"/>
<path d="M54.3354 35.3411L51.154 32.3591L54.746 30.4755L54.3354 35.3411Z" fill="#F5F5F5"/>
<path d="M53.1567 19.5162L52.4395 19.3662L49.128 35.2079L49.8453 35.3579L53.1567 19.5162Z" fill="#E0E0E0"/>
<path d="M60.0221 20.9514L59.0938 20.7573L55.9289 35.8976L56.8573 36.0917L60.0221 20.9514Z" fill="#EBEBEB"/>
<path d="M49.4393 29.6675L44.6997 28.6768L43.709 33.4163L48.4485 34.4071L49.4393 29.6675Z" fill="#EBEBEB"/>
<path d="M65.4527 93.8873C89.7595 98.9683 109.705 101.937 110.001 100.518C110.298 99.0986 90.8338 93.8292 66.527 88.7483C42.2202 83.6673 22.2751 80.6988 21.9785 82.1179C21.6819 83.537 41.1459 88.8064 65.4527 93.8873Z" fill="#F5F5F5"/>
<path d="M63.0435 47.9995L110.339 57.886C110.467 57.9126 110.587 57.964 110.695 58.0373C110.802 58.1106 110.894 58.2043 110.965 58.3132C111.037 58.422 111.086 58.5438 111.11 58.6715C111.134 58.7993 111.133 58.9306 111.106 59.0579L103.954 93.2723L54.7196 82.9805L61.8698 48.7752C61.8953 48.6469 61.9461 48.525 62.019 48.4164C62.092 48.3078 62.1858 48.2148 62.2949 48.1426C62.404 48.0705 62.5264 48.0207 62.6549 47.9962C62.7834 47.9716 62.9155 47.9727 63.0435 47.9995Z" fill="#263238"/>
<path d="M109.884 60.0672L62.5884 50.1807L56.2696 80.4091L103.565 90.2956L109.884 60.0672Z" fill="#407BFF"/>
<path opacity="0.2" d="M85.9188 54.5064C86.1796 54.5609 86.4351 54.3937 86.4896 54.1329C86.5441 53.8722 86.3769 53.6166 86.1162 53.5621C85.8554 53.5076 85.5999 53.6748 85.5453 53.9355C85.4908 54.1963 85.658 54.4519 85.9188 54.5064Z" fill="white"/>
<path opacity="0.2" d="M86.918 54.5913C87.1135 54.6322 87.3052 54.5068 87.3461 54.3112C87.387 54.1157 87.2616 53.924 87.066 53.8831C86.8705 53.8422 86.6788 53.9676 86.6379 54.1632C86.597 54.3588 86.7224 54.5504 86.918 54.5913Z" fill="white"/>
<path opacity="0.2" d="M79.9813 86.014C79.9238 85.9792 79.861 85.9541 79.7955 85.9396C79.6729 85.914 79.5455 85.9253 79.4294 85.9721C79.3132 86.0189 79.2136 86.099 79.143 86.2025C79.0724 86.3059 79.0341 86.4279 79.0329 86.5531C79.0317 86.6783 79.0676 86.8011 79.1361 86.9059C79.2047 87.0107 79.3028 87.0928 79.418 87.1418C79.5332 87.1908 79.6604 87.2046 79.7834 87.1814C79.9064 87.1581 80.0198 87.0989 80.1092 87.0113C80.1986 86.9236 80.26 86.8114 80.2856 86.6888C80.2892 86.6778 80.2916 86.6663 80.2927 86.6548C80.1823 86.5918 80.0934 86.4969 80.0379 86.3826C79.9823 86.2682 79.9626 86.1397 79.9813 86.014Z" fill="white"/>
<path d="M107.724 93.5599L107.63 94.0139C107.599 94.1545 107.525 94.2816 107.417 94.3768C107.31 94.4719 107.174 94.5301 107.031 94.5427L103.394 94.8295C102.941 94.8674 102.486 94.8392 102.042 94.7459L55.8854 85.0976C55.4419 85.0052 55.0141 84.8487 54.6155 84.6331L51.3973 82.9038C51.2707 82.8352 51.1694 82.7278 51.1084 82.5973C51.0474 82.4669 51.0299 82.3202 51.0584 82.1791L51.1533 81.7251L107.724 93.5599Z" fill="#263238"/>
<path opacity="0.2" d="M107.724 93.5599L107.63 94.0139C107.599 94.1545 107.525 94.2816 107.417 94.3768C107.31 94.4719 107.174 94.5301 107.031 94.5427L103.394 94.8295C102.941 94.8674 102.486 94.8392 102.042 94.7459L55.8854 85.0976C55.4419 85.0052 55.0141 84.8487 54.6155 84.6331L51.3973 82.9038C51.2707 82.8352 51.1694 82.7278 51.1084 82.5973C51.0474 82.4669 51.0299 82.3202 51.0584 82.1791L51.1533 81.7251L107.724 93.5599Z" fill="white"/>
<path opacity="0.2" d="M107.726 93.5597L107.631 94.0136C107.607 94.1312 107.55 94.2399 107.469 94.3279L51.0817 82.541C51.042 82.4276 51.0339 82.3055 51.0584 82.1879L51.1533 81.7339L107.726 93.5597Z" fill="white"/>
<path opacity="0.2" d="M83.4191 88.4775L83.3783 88.6727C83.373 88.6981 83.3627 88.7221 83.3481 88.7435C83.3336 88.7649 83.3149 88.7832 83.2932 88.7973C83.2716 88.8115 83.2473 88.8213 83.2219 88.8261C83.1965 88.8309 83.1703 88.8306 83.145 88.8253L75.5726 87.2424C75.547 87.2374 75.5226 87.2273 75.501 87.2128C75.4793 87.1983 75.4607 87.1796 75.4463 87.1579C75.4319 87.1362 75.422 87.1118 75.417 87.0862C75.4121 87.0605 75.4124 87.0342 75.4177 87.0087L75.4585 86.8135L83.4191 88.4775Z" fill="black"/>
<path opacity="0.1" d="M109.884 60.0672C109.884 60.0672 97.9169 84.6657 56.2696 80.4091L62.5884 50.1807L109.884 60.0672Z" fill="white"/>
<path d="M107.876 47.2959L101.933 75.7288L96.2081 79.4741L77.4858 75.5605C77.2925 75.5194 77.1233 75.4034 77.0154 75.2379C76.9074 75.0723 76.8695 74.8707 76.91 74.6773L83.6905 42.2402C83.7309 42.0467 83.8464 41.8772 84.0116 41.7688C84.1768 41.6603 84.3783 41.6218 84.5719 41.6616L107.294 46.4113C107.39 46.4308 107.482 46.4692 107.563 46.5244C107.645 46.5795 107.715 46.6502 107.769 46.7324C107.823 46.8146 107.861 46.9067 107.879 47.0034C107.897 47.1001 107.897 47.1995 107.876 47.2959Z" fill="#407BFF"/>
<path opacity="0.6" d="M107.617 48.5386L101.933 75.7299L96.2083 79.4752L77.4861 75.5615C77.2927 75.5205 77.1236 75.4045 77.0156 75.2389C76.9077 75.0734 76.8698 74.8718 76.9102 74.6783L83.4312 43.4829L107.617 48.5386Z" fill="white"/>
<path opacity="0.6" d="M107.206 47.3368C107.192 47.407 107.157 47.4714 107.106 47.5219C107.055 47.5724 106.991 47.6066 106.92 47.6202C106.85 47.6338 106.777 47.6263 106.711 47.5985C106.645 47.5707 106.589 47.5239 106.549 47.4641C106.51 47.4042 106.489 47.3341 106.49 47.2624C106.49 47.1908 106.512 47.1209 106.552 47.0616C106.593 47.0024 106.649 46.9564 106.716 46.9296C106.782 46.9028 106.855 46.8963 106.925 46.9109C106.972 46.9203 107.016 46.9388 107.055 46.9654C107.095 46.9919 107.128 47.0259 107.154 47.0655C107.18 47.1051 107.198 47.1494 107.207 47.196C107.216 47.2425 107.216 47.2904 107.206 47.3368Z" fill="white"/>
<path opacity="0.6" d="M105.859 47.0566C105.844 47.1261 105.809 47.1899 105.758 47.2396C105.708 47.2894 105.643 47.323 105.573 47.3362C105.504 47.3494 105.431 47.3416 105.366 47.3137C105.301 47.2859 105.245 47.2393 105.206 47.1798C105.167 47.1203 105.147 47.0506 105.147 46.9795C105.148 46.9084 105.17 46.8391 105.21 46.7804C105.25 46.7217 105.307 46.6762 105.372 46.6496C105.438 46.623 105.511 46.6166 105.58 46.6312C105.627 46.6405 105.671 46.659 105.71 46.6856C105.749 46.7121 105.783 46.7461 105.808 46.7857C105.834 46.8253 105.852 46.8696 105.861 46.9161C105.869 46.9626 105.869 47.0103 105.859 47.0566Z" fill="white"/>
<path opacity="0.6" d="M104.512 46.7743C104.498 46.8446 104.463 46.9091 104.412 46.9596C104.361 47.0101 104.296 47.0443 104.226 47.0578C104.155 47.0713 104.082 47.0636 104.016 47.0356C103.95 47.0076 103.894 46.9606 103.855 46.9006C103.816 46.8406 103.795 46.7702 103.796 46.6985C103.797 46.6267 103.819 46.5568 103.859 46.4977C103.9 46.4386 103.957 46.3928 104.024 46.3663C104.091 46.3399 104.164 46.3338 104.234 46.3489C104.327 46.3684 104.409 46.4242 104.461 46.504C104.513 46.5837 104.532 46.681 104.512 46.7743Z" fill="white"/>
<path d="M97.6719 48.745L84.7107 46.0356C84.6505 46.023 84.5978 45.987 84.5641 45.9356C84.5304 45.8841 84.5186 45.8214 84.5312 45.7612C84.5437 45.701 84.5797 45.6482 84.6312 45.6146C84.6827 45.5809 84.7454 45.569 84.8056 45.5816L97.7668 48.291C97.827 48.3036 97.8797 48.3395 97.9134 48.391C97.9471 48.4425 97.9589 48.5052 97.9463 48.5654C97.9338 48.6256 97.8978 48.6784 97.8463 48.712C97.7948 48.7457 97.7321 48.7575 97.6719 48.745Z" fill="#407BFF"/>
<path d="M93.7473 49.2218L84.4407 47.2763C84.3805 47.2637 84.3278 47.2278 84.2941 47.1763C84.2604 47.1248 84.2486 47.0621 84.2611 47.0019C84.2737 46.9417 84.3097 46.889 84.3612 46.8553C84.4127 46.8216 84.4754 46.8098 84.5356 46.8224L93.8422 48.7678C93.9024 48.7804 93.9552 48.8163 93.9888 48.8678C94.0225 48.9193 94.0344 48.982 94.0218 49.0422C94.0092 49.1024 93.9732 49.1551 93.9217 49.1888C93.8703 49.2225 93.8075 49.2343 93.7473 49.2218Z" fill="#407BFF"/>
<path d="M99.7923 70.4955L83.2219 67.0317C83.1617 67.0191 83.109 66.9831 83.0753 66.9317C83.0417 66.8802 83.0298 66.8175 83.0424 66.7573C83.055 66.6971 83.091 66.6443 83.1424 66.6107C83.1939 66.577 83.2566 66.5651 83.3168 66.5777L99.8872 70.0415C99.9474 70.0541 100 70.0901 100.034 70.1416C100.067 70.193 100.079 70.2558 100.067 70.316C100.054 70.3762 100.018 70.4289 99.9667 70.4626C99.9152 70.4962 99.8525 70.5081 99.7923 70.4955Z" fill="#407BFF"/>
<path d="M95.9822 74.8749L79.4119 71.4111C79.3517 71.3985 79.2989 71.3625 79.2653 71.3111C79.2316 71.2596 79.2198 71.1969 79.2323 71.1367C79.2449 71.0765 79.2809 71.0237 79.3324 70.9901C79.3838 70.9564 79.4466 70.9445 79.5068 70.9571L96.0771 74.4209C96.1373 74.4335 96.1901 74.4695 96.2238 74.5209C96.2574 74.5724 96.2693 74.6351 96.2567 74.6953C96.2441 74.7556 96.2081 74.8083 96.1566 74.842C96.1052 74.8756 96.0424 74.8875 95.9822 74.8749Z" fill="#407BFF"/>
<path d="M99.5293 71.7379L80.1829 67.6938C80.1227 67.6812 80.0699 67.6452 80.0363 67.5938C80.0026 67.5423 79.9907 67.4796 80.0033 67.4194C80.0159 67.3592 80.0519 67.3064 80.1034 67.2728C80.1548 67.2391 80.2176 67.2272 80.2778 67.2398L99.6242 71.2839C99.6844 71.2965 99.7372 71.3325 99.7708 71.384C99.8045 71.4354 99.8164 71.4982 99.8038 71.5584C99.7912 71.6186 99.7552 71.6713 99.7037 71.705C99.6523 71.7386 99.5895 71.7505 99.5293 71.7379Z" fill="#407BFF"/>
<path d="M99.2725 72.9742L79.926 68.9301C79.8658 68.9176 79.8131 68.8816 79.7794 68.8301C79.7458 68.7786 79.7339 68.7159 79.7465 68.6557C79.7591 68.5955 79.7951 68.5428 79.8465 68.5091C79.898 68.4754 79.9607 68.4636 80.0209 68.4762L99.3674 72.5203C99.4276 72.5328 99.4803 72.5688 99.514 72.6203C99.5477 72.6718 99.5595 72.7345 99.5469 72.7947C99.5344 72.8549 99.4984 72.9076 99.4469 72.9413C99.3954 72.975 99.3327 72.9868 99.2725 72.9742Z" fill="#407BFF"/>
<path d="M99.0108 74.2145L79.6643 70.1704C79.6041 70.1578 79.5514 70.1218 79.5177 70.0703C79.484 70.0189 79.4722 69.9561 79.4848 69.8959C79.4974 69.8357 79.5333 69.783 79.5848 69.7493C79.6363 69.7157 79.699 69.7038 79.7592 69.7164L99.1057 73.7605C99.1659 73.7731 99.2186 73.8091 99.2523 73.8605C99.286 73.912 99.2978 73.9747 99.2852 74.0349C99.2726 74.0951 99.2367 74.1479 99.1852 74.1815C99.1337 74.2152 99.071 74.2271 99.0108 74.2145Z" fill="#407BFF"/>
<path opacity="0.5" d="M101.931 75.7295L96.2065 79.4748L97.1963 74.7397L101.931 75.7295Z" fill="#407BFF"/>
<path opacity="0.4" d="M107.616 48.5388L106.279 48.2593L100.595 75.4506L101.932 75.73L107.616 48.5388Z" fill="black"/>
<path d="M103.971 62.6056C103.84 62.5783 103.726 62.5002 103.653 62.3885C103.58 62.2769 103.554 62.1407 103.581 62.0101L104.162 59.2317C104.192 59.1037 104.271 58.9924 104.382 58.9217C104.492 58.851 104.627 58.8265 104.755 58.8535C104.82 58.867 104.881 58.8931 104.936 58.9303C104.991 58.9676 105.037 59.0152 105.073 59.0705C105.11 59.1258 105.135 59.1877 105.147 59.2527C105.159 59.3176 105.158 59.3843 105.145 59.449L104.564 62.2274C104.534 62.3554 104.455 62.4667 104.345 62.5374C104.234 62.6081 104.1 62.6326 103.971 62.6056Z" fill="#407BFF"/>
<path d="M101.215 63.6859L84.6443 60.2221C84.5841 60.2096 84.5314 60.1736 84.4977 60.1221C84.464 60.0706 84.4522 60.0079 84.4648 59.9477C84.4773 59.8875 84.5133 59.8348 84.5648 59.8011C84.6163 59.7674 84.679 59.7556 84.7392 59.7682L101.31 63.2319C101.37 63.2445 101.423 63.2805 101.456 63.332C101.49 63.3835 101.502 63.4462 101.489 63.5064C101.477 63.5666 101.441 63.6193 101.389 63.653C101.338 63.6867 101.275 63.6985 101.215 63.6859Z" fill="#407BFF"/>
<path d="M97.4046 68.0653L80.8342 64.6015C80.774 64.5889 80.7213 64.553 80.6876 64.5015C80.654 64.45 80.6421 64.3873 80.6547 64.3271C80.6673 64.2669 80.7033 64.2142 80.7547 64.1805C80.8062 64.1468 80.8689 64.135 80.9291 64.1475L97.4995 67.6113C97.5597 67.6239 97.6124 67.6599 97.6461 67.7114C97.6798 67.7628 97.6916 67.8256 97.679 67.8858C97.6665 67.946 97.6305 67.9987 97.579 68.0324C97.5275 68.0661 97.4648 68.0779 97.4046 68.0653Z" fill="#407BFF"/>
<path d="M100.956 64.9283L81.6096 60.8842C81.5494 60.8717 81.4967 60.8357 81.463 60.7842C81.4293 60.7327 81.4175 60.67 81.4301 60.6098C81.4427 60.5496 81.4787 60.4969 81.5301 60.4632C81.5816 60.4295 81.6443 60.4177 81.7045 60.4303L101.051 64.4744C101.111 64.4869 101.164 64.5229 101.198 64.5744C101.231 64.6259 101.243 64.6886 101.231 64.7488C101.218 64.809 101.182 64.8617 101.13 64.8954C101.079 64.9291 101.016 64.9409 100.956 64.9283Z" fill="#407BFF"/>
<path d="M100.694 66.1666L81.3479 62.1225C81.2877 62.1099 81.235 62.074 81.2013 62.0225C81.1676 61.971 81.1558 61.9083 81.1684 61.8481C81.181 61.7879 81.2169 61.7351 81.2684 61.7015C81.3199 61.6678 81.3826 61.656 81.4428 61.6685L100.789 65.7126C100.849 65.7252 100.902 65.7612 100.936 65.8127C100.97 65.8641 100.981 65.9269 100.969 65.9871C100.956 66.0473 100.92 66.1 100.869 66.1337C100.817 66.1674 100.755 66.1792 100.694 66.1666Z" fill="#407BFF"/>
<path d="M100.438 67.4049L81.0911 63.3608C81.0309 63.3482 80.9781 63.3122 80.9445 63.2608C80.9108 63.2093 80.899 63.1466 80.9115 63.0864C80.9241 63.0262 80.9601 62.9734 81.0116 62.9398C81.063 62.9061 81.1258 62.8942 81.186 62.9068L100.532 66.9509C100.593 66.9635 100.645 66.9995 100.679 67.051C100.713 67.1024 100.725 67.1652 100.712 67.2254C100.699 67.2856 100.663 67.3383 100.612 67.372C100.56 67.4056 100.498 67.4175 100.438 67.4049Z" fill="#407BFF"/>
<path d="M103.486 52.8001L84.0825 48.7441L82.5689 55.9852L101.972 60.0411L103.486 52.8001Z" fill="#407BFF"/>
<path opacity="0.2" d="M82.8118 54.823L83.3407 54.9335L83.6159 53.617L84.2243 53.7441L84.7676 51.1451L85.6165 51.3225L85.282 52.9228L86.4487 53.1667L86.0041 55.2936L87.3956 55.5845L87.7054 54.1022L88.8563 54.3428L89.7761 53.7391L90.1448 51.9754L90.6101 52.0726L90.082 54.599L91.2533 54.8439L91.0654 55.7428L92.2775 55.9961L93.236 51.4109L93.6422 51.1452L93.3793 52.4027L94.1533 52.5645L94.0352 53.1297L94.6218 54.0294L94.3414 55.3709L95.4083 55.594L95.6303 54.5316L98.4132 55.1134L98.5788 54.3212L99.2076 54.4526L99.497 53.068L99.7218 53.1149L99.2667 55.2918L99.6208 55.3658L100.59 54.732L101.343 54.8895L101.495 54.1654L101.876 54.2452L101.723 54.9783L102.215 55.0813L101.588 58.0821L102.124 58.1941L102.437 56.696L102.661 56.757L103.488 52.8006L84.0825 48.7441L82.8118 54.823Z" fill="black"/>
<path d="M101.734 61.187L96.5134 60.0957C96.4532 60.0831 96.4005 60.0471 96.3668 59.9956C96.3332 59.9442 96.3213 59.8814 96.3339 59.8212C96.3465 59.761 96.3825 59.7083 96.4339 59.6746C96.4854 59.6409 96.5481 59.6291 96.6083 59.6417L101.829 60.733C101.889 60.7456 101.942 60.7816 101.976 60.8331C102.009 60.8845 102.021 60.9473 102.009 61.0075C101.996 61.0677 101.96 61.1204 101.909 61.1541C101.857 61.1877 101.794 61.1996 101.734 61.187Z" fill="#407BFF"/>
<path opacity="0.2" d="M93.2067 43.4666L88.2947 66.9647L83.9841 69.7926L78.1845 68.5803L83.6886 42.2493C83.729 42.0558 83.8445 41.8863 84.0097 41.7778C84.1749 41.6694 84.3764 41.6308 84.57 41.6707L93.2067 43.4666Z" fill="black"/>
<path opacity="0.4" d="M103.971 62.6056C103.84 62.5783 103.726 62.5002 103.653 62.3885C103.58 62.2769 103.554 62.1407 103.581 62.0101L104.162 59.2317C104.192 59.1037 104.271 58.9924 104.382 58.9217C104.492 58.851 104.627 58.8265 104.755 58.8535C104.82 58.867 104.881 58.8931 104.936 58.9303C104.991 58.9676 105.037 59.0152 105.073 59.0705C105.11 59.1258 105.135 59.1877 105.147 59.2527C105.159 59.3176 105.158 59.3843 105.145 59.449L104.564 62.2274C104.534 62.3554 104.455 62.4667 104.345 62.5374C104.234 62.6081 104.1 62.6326 103.971 62.6056Z" fill="white"/>
<path d="M78.4803 44.8492L72.5368 73.2821L66.8119 77.0273L48.0942 73.1147C47.9009 73.0736 47.7317 72.9576 47.6238 72.7921C47.5158 72.6265 47.4779 72.4249 47.5184 72.2314L54.2989 39.7944C54.3393 39.6009 54.4548 39.4314 54.62 39.3229C54.7852 39.2145 54.9867 39.1759 55.1803 39.2158L77.9021 43.9655C78.096 44.006 78.2658 44.1218 78.3742 44.2876C78.4826 44.4533 78.5208 44.6553 78.4803 44.8492Z" fill="#407BFF"/>
<path opacity="0.6" d="M78.2253 46.0919L72.5414 73.2832L66.8166 77.0284L48.0989 73.1157C47.9055 73.0747 47.7363 72.9587 47.6284 72.7931C47.5205 72.6276 47.4826 72.426 47.523 72.2325L54.0439 41.0371L78.2253 46.0919Z" fill="white"/>
<path opacity="0.6" d="M77.8231 44.893C77.8089 44.9632 77.7742 45.0276 77.7233 45.0781C77.6724 45.1285 77.6077 45.1627 77.5374 45.1763C77.4671 45.19 77.3943 45.1824 77.3282 45.1546C77.2622 45.1268 77.2059 45.0801 77.1665 45.0202C77.127 44.9604 77.1063 44.8902 77.1068 44.8186C77.1073 44.7469 77.1291 44.677 77.1694 44.6178C77.2097 44.5585 77.2667 44.5126 77.3331 44.4858C77.3995 44.4589 77.4724 44.4524 77.5426 44.4671C77.589 44.4765 77.6332 44.495 77.6724 44.5215C77.7117 44.548 77.7454 44.5821 77.7715 44.6216C77.7975 44.6612 77.8155 44.7056 77.8244 44.7521C77.8333 44.7987 77.8328 44.8466 77.8231 44.893Z" fill="white"/>
<path opacity="0.6" d="M76.4628 44.6097C76.4486 44.6801 76.4137 44.7446 76.3628 44.795C76.3118 44.8455 76.2469 44.8797 76.1765 44.8933C76.106 44.9068 76.0331 44.8991 75.9671 44.8711C75.901 44.8431 75.8448 44.7961 75.8055 44.736C75.7662 44.676 75.7457 44.6056 75.7465 44.5339C75.7473 44.4622 75.7694 44.3923 75.81 44.3331C75.8507 44.274 75.908 44.2283 75.9746 44.2018C76.0413 44.1753 76.1144 44.1692 76.1845 44.1844C76.2308 44.1937 76.2749 44.2122 76.314 44.2388C76.3532 44.2653 76.3867 44.2993 76.4126 44.3389C76.4384 44.3785 76.4562 44.4228 76.4648 44.4693C76.4735 44.5158 76.4728 44.5635 76.4628 44.6097Z" fill="white"/>
<path opacity="0.6" d="M75.1205 44.3285C75.1063 44.3987 75.0715 44.4631 75.0207 44.5136C74.9698 44.5641 74.9051 44.5983 74.8348 44.6119C74.7644 44.6255 74.6916 44.618 74.6256 44.5902C74.5595 44.5624 74.5032 44.5156 74.4638 44.4558C74.4244 44.3959 74.4037 44.3258 74.4042 44.2541C74.4047 44.1825 74.4265 44.1126 74.4668 44.0533C74.5071 43.9941 74.564 43.9481 74.6305 43.9213C74.6969 43.8945 74.7698 43.888 74.8399 43.9026C74.8864 43.912 74.9305 43.9305 74.9698 43.9571C75.0091 43.9836 75.0427 44.0176 75.0688 44.0572C75.0949 44.0968 75.1129 44.1411 75.1218 44.1877C75.1306 44.2342 75.1302 44.2821 75.1205 44.3285Z" fill="white"/>
<path d="M59.3235 44.5556L55.2966 43.7138C55.2364 43.7012 55.1837 43.6653 55.15 43.6138C55.1164 43.5623 55.1045 43.4996 55.1171 43.4394C55.1297 43.3792 55.1657 43.3265 55.2171 43.2928C55.2686 43.2591 55.3313 43.2473 55.3915 43.2599L59.4184 44.1016C59.4786 44.1142 59.5313 44.1502 59.565 44.2016C59.5986 44.2531 59.6105 44.3158 59.5979 44.376C59.5853 44.4362 59.5493 44.489 59.4979 44.5227C59.4464 44.5563 59.3837 44.5682 59.3235 44.5556Z" fill="#407BFF"/>
<path d="M60.9687 46.1949L55.0442 44.9565C54.984 44.9439 54.9313 44.9079 54.8976 44.8565C54.8639 44.805 54.8521 44.7423 54.8647 44.6821C54.8772 44.6219 54.9132 44.5691 54.9647 44.5355C55.0162 44.5018 55.0789 44.4899 55.1391 44.5025L61.0636 45.741C61.1238 45.7535 61.1765 45.7895 61.2102 45.841C61.2439 45.8925 61.2557 45.9552 61.2431 46.0154C61.2305 46.0756 61.1945 46.1283 61.1431 46.162C61.0916 46.1957 61.0289 46.2075 60.9687 46.1949Z" fill="#407BFF"/>
<path d="M58.8688 47.0489L54.783 46.1948C54.7228 46.1822 54.67 46.1462 54.6364 46.0948C54.6027 46.0433 54.5908 45.9806 54.6034 45.9204C54.616 45.8601 54.652 45.8074 54.7035 45.7737C54.7549 45.7401 54.8177 45.7282 54.8779 45.7408L58.9637 46.5949C59.0239 46.6075 59.0767 46.6435 59.1103 46.6949C59.144 46.7464 59.1558 46.8091 59.1433 46.8693C59.1307 46.9295 59.0947 46.9823 59.0432 47.0159C58.9918 47.0496 58.929 47.0615 58.8688 47.0489Z" fill="#407BFF"/>
<path d="M69.8734 70.5458L53.303 67.082C53.2428 67.0694 53.1901 67.0334 53.1564 66.982C53.1227 66.9305 53.1109 66.8678 53.1234 66.8076C53.136 66.7474 53.172 66.6946 53.2235 66.6609C53.275 66.6273 53.3377 66.6154 53.3979 66.628L69.9683 70.0918C70.0285 70.1044 70.0812 70.1404 70.1149 70.1918C70.1485 70.2433 70.1604 70.306 70.1478 70.3662C70.1352 70.4265 70.0992 70.4792 70.0478 70.5129C69.9963 70.5465 69.9336 70.5584 69.8734 70.5458Z" fill="#407BFF"/>
<path d="M60.5373 69.8878L50.2727 67.7422C50.2125 67.7296 50.1598 67.6936 50.1261 67.6421C50.0924 67.5906 50.0806 67.5279 50.0932 67.4677C50.1058 67.4075 50.1417 67.3548 50.1932 67.3211C50.2447 67.2874 50.3074 67.2756 50.3676 67.2882L60.6322 69.4338C60.6924 69.4464 60.7451 69.4824 60.7788 69.5339C60.8124 69.5853 60.8243 69.6481 60.8117 69.7083C60.7991 69.7685 60.7631 69.8212 60.7117 69.8549C60.6602 69.8885 60.5975 69.9004 60.5373 69.8878Z" fill="#407BFF"/>
<path opacity="0.5" d="M72.5353 73.2857L66.8105 77.0309L67.8003 72.2959L72.5353 73.2857Z" fill="#407BFF"/>
<path opacity="0.4" d="M78.2242 46.0925L76.8872 45.813L71.2033 73.0043L72.5402 73.2837L78.2242 46.0925Z" fill="black"/>
<path d="M72.2557 71.2844C72.125 71.2571 72.0106 71.1791 71.9375 71.0674C71.8645 70.9557 71.8388 70.8196 71.8661 70.6889L72.4468 67.9105C72.4741 67.7799 72.5522 67.6655 72.6639 67.5924C72.7756 67.5193 72.9117 67.4936 73.0424 67.5209C73.1071 67.5345 73.1685 67.5606 73.223 67.5978C73.2776 67.6351 73.3243 67.6827 73.3605 67.738C73.3967 67.7933 73.4216 67.8552 73.4339 67.9201C73.4462 67.9851 73.4455 68.0518 73.432 68.1165L72.8503 70.8994C72.8219 71.029 72.7435 71.1421 72.6322 71.2143C72.5208 71.2864 72.3855 71.3116 72.2557 71.2844Z" fill="#407BFF"/>
<path d="M74.6374 47.7594L71.5208 47.1079C71.4606 47.0953 71.4078 47.0593 71.3742 47.0078C71.3405 46.9564 71.3286 46.8936 71.3412 46.8334C71.3538 46.7732 71.3898 46.7205 71.4413 46.6868C71.4927 46.6532 71.5555 46.6413 71.6157 46.6539L74.7323 47.3054C74.7925 47.318 74.8452 47.3539 74.8789 47.4054C74.9125 47.4569 74.9244 47.5196 74.9118 47.5798C74.8992 47.64 74.8632 47.6928 74.8118 47.7264C74.7603 47.7601 74.6976 47.7719 74.6374 47.7594Z" fill="#407BFF"/>
<path d="M74.3774 48.9985L72.7703 48.6626C72.7101 48.65 72.6573 48.614 72.6237 48.5625C72.59 48.5111 72.5782 48.4483 72.5907 48.3881C72.6033 48.3279 72.6393 48.2752 72.6908 48.2415C72.7422 48.2078 72.805 48.196 72.8652 48.2086L74.4768 48.5455C74.537 48.5581 74.5898 48.594 74.6234 48.6455C74.6571 48.697 74.6689 48.7597 74.6564 48.8199C74.6438 48.8801 74.6078 48.9329 74.5563 48.9665C74.5049 49.0002 74.4421 49.012 74.3819 48.9995L74.3774 48.9985Z" fill="#407BFF"/>
<path d="M73.431 53.5199L56.8606 50.0561C56.8004 50.0435 56.7477 50.0076 56.714 49.9561C56.6803 49.9046 56.6685 49.8419 56.6811 49.7817C56.6937 49.7215 56.7296 49.6687 56.7811 49.6351C56.8326 49.6014 56.8953 49.5896 56.9555 49.6021L73.5259 53.0659C73.5861 53.0785 73.6388 53.1145 73.6725 53.166C73.7062 53.2174 73.718 53.2802 73.7054 53.3404C73.6928 53.4006 73.6568 53.4533 73.6054 53.487C73.5539 53.5206 73.4912 53.5325 73.431 53.5199Z" fill="#407BFF"/>
<path d="M73.1745 54.7618L53.8303 50.7182C53.7701 50.7056 53.7174 50.6697 53.6837 50.6182C53.6501 50.5667 53.6382 50.504 53.6508 50.4438C53.6634 50.3836 53.6994 50.3308 53.7508 50.2972C53.8023 50.2635 53.865 50.2517 53.9252 50.2642L73.2694 54.3079C73.3296 54.3205 73.3824 54.3564 73.416 54.4079C73.4497 54.4594 73.4616 54.5221 73.449 54.5823C73.4364 54.6425 73.4004 54.6952 73.3489 54.7289C73.2975 54.7626 73.2347 54.7744 73.1745 54.7618Z" fill="#407BFF"/>
<path d="M61.5637 53.6277L53.5691 51.9565C53.5089 51.9439 53.4562 51.9079 53.4225 51.8565C53.3888 51.805 53.377 51.7423 53.3896 51.6821C53.4021 51.6219 53.4381 51.5691 53.4896 51.5355C53.5411 51.5018 53.6038 51.4899 53.664 51.5025L61.6586 53.1737C61.7188 53.1863 61.7716 53.2223 61.8052 53.2737C61.8389 53.3252 61.8508 53.3879 61.8382 53.4481C61.8256 53.5083 61.7896 53.5611 61.7381 53.5947C61.6867 53.6284 61.6239 53.6403 61.5637 53.6277Z" fill="#407BFF"/>
<path opacity="0.7" d="M64.0589 55.8663L56.4365 54.2729L56.0095 56.3159L63.6318 57.9092L64.0589 55.8663Z" fill="#407BFF"/>
<path opacity="0.3" d="M59.3661 57.4912L55.9136 56.7695L54.3368 64.3125L57.7894 65.0342L59.3661 57.4912Z" fill="#407BFF"/>
<path opacity="0.3" d="M67.9558 59.2865L63.9902 58.4575L62.4135 66.0004L66.379 66.8294L67.9558 59.2865Z" fill="#407BFF"/>
<path opacity="0.7" d="M72.5732 57.6459L64.5127 55.9609L64.0857 58.0039L72.1461 59.6888L72.5732 57.6459Z" fill="#407BFF"/>
<path opacity="0.3" d="M72.0526 60.1424L68.4116 59.3813L66.8349 66.9243L70.4758 67.6854L72.0526 60.1424Z" fill="#407BFF"/>
<path opacity="0.5" d="M55.4617 56.6742L52.7061 56.0981L51.1293 63.6411L53.885 64.2171L55.4617 56.6742Z" fill="#407BFF"/>
<path d="M55.9842 54.1781L53.2285 53.6021L52.8015 55.645L55.5571 56.221L55.9842 54.1781Z" fill="#407BFF"/>
<path opacity="0.3" d="M63.5349 58.3632L59.8213 57.5869L58.2446 65.1298L61.9581 65.9061L63.5349 58.3632Z" fill="#407BFF"/>
<path opacity="0.4" d="M72.2557 71.2844C72.125 71.2571 72.0106 71.1791 71.9375 71.0674C71.8645 70.9557 71.8388 70.8196 71.8661 70.6889L72.4468 67.9105C72.4741 67.7799 72.5522 67.6655 72.6639 67.5924C72.7756 67.5193 72.9117 67.4936 73.0424 67.5209C73.1071 67.5345 73.1685 67.5606 73.223 67.5978C73.2776 67.6351 73.3243 67.6827 73.3605 67.738C73.3967 67.7933 73.4216 67.8552 73.4339 67.9201C73.4462 67.9851 73.4455 68.0518 73.432 68.1165L72.8503 70.8994C72.8219 71.029 72.7435 71.1421 72.6322 71.2143C72.5208 71.2864 72.3855 71.3116 72.2557 71.2844Z" fill="white"/>
<path opacity="0.2" d="M78.4817 44.8493L73.5375 68.5018L59.8431 65.6392C59.6497 65.5982 59.4806 65.4822 59.3726 65.3166C59.2647 65.1511 59.2268 64.9495 59.2672 64.756L64.2114 41.1035L77.9035 43.9657C78.0974 44.0062 78.2672 44.122 78.3756 44.2878C78.484 44.4535 78.5222 44.6555 78.4817 44.8493Z" fill="black"/>
<path d="M93.1966 34.4746L87.2531 62.9076L81.5282 66.6528L62.8105 62.7402C62.6172 62.6991 62.448 62.5831 62.3401 62.4175C62.2322 62.252 62.1942 62.0504 62.2347 61.8569L69.0152 29.4199C69.0556 29.2264 69.1711 29.0569 69.3363 28.9484C69.5016 28.84 69.703 28.8014 69.8966 28.8413L92.6184 33.5909C92.8123 33.6315 92.9821 33.7473 93.0905 33.9131C93.1989 34.0788 93.2371 34.2808 93.1966 34.4746Z" fill="#407BFF"/>
<path opacity="0.6" d="M92.9421 35.7174L87.2582 62.9086L81.5334 66.6539L62.8157 62.7412C62.6223 62.7002 62.4532 62.5842 62.3452 62.4186C62.2373 62.2531 62.1994 62.0515 62.2398 61.858L68.7607 30.6626L92.9421 35.7174Z" fill="white"/>
<path opacity="0.6" d="M92.1051 34.7938C92.2994 34.8344 92.4899 34.7098 92.5305 34.5155C92.5711 34.3212 92.4465 34.1308 92.2522 34.0901C92.0579 34.0495 91.8675 34.1741 91.8268 34.3684C91.7862 34.5628 91.9108 34.7532 92.1051 34.7938Z" fill="white"/>
<path opacity="0.6" d="M90.7541 34.5126C90.9484 34.5532 91.1388 34.4286 91.1794 34.2343C91.2201 34.04 91.0955 33.8495 90.9012 33.8089C90.7068 33.7683 90.5164 33.8929 90.4758 34.0872C90.4352 34.2815 90.5597 34.472 90.7541 34.5126Z" fill="white"/>
<path opacity="0.6" d="M89.8368 33.9515C89.8226 34.0219 89.7878 34.0864 89.7368 34.1368C89.6858 34.1873 89.6209 34.2215 89.5505 34.2351C89.48 34.2486 89.4071 34.2409 89.3411 34.2129C89.275 34.1849 89.2188 34.1379 89.1795 34.0778C89.1402 34.0178 89.1197 33.9474 89.1205 33.8757C89.1213 33.804 89.1434 33.7341 89.1841 33.6749C89.2247 33.6158 89.282 33.5701 89.3487 33.5436C89.4153 33.5171 89.4884 33.511 89.5585 33.5262C89.6049 33.5355 89.6489 33.554 89.688 33.5805C89.7272 33.6071 89.7607 33.6411 89.7866 33.6807C89.8125 33.7203 89.8302 33.7646 89.8389 33.8111C89.8475 33.8576 89.8468 33.9053 89.8368 33.9515Z" fill="white"/>
<path d="M81.9917 35.8522L77.3679 34.8857C77.3077 34.8731 77.255 34.8371 77.2213 34.7857C77.1877 34.7342 77.1758 34.6715 77.1884 34.6113C77.201 34.5511 77.237 34.4983 77.2884 34.4647C77.3399 34.431 77.4026 34.4191 77.4628 34.4317L82.0866 35.3983C82.1468 35.4109 82.1996 35.4468 82.2333 35.4983C82.2669 35.5498 82.2788 35.6125 82.2662 35.6727C82.2536 35.7329 82.2176 35.7856 82.1662 35.8193C82.1147 35.853 82.0519 35.8648 81.9917 35.8522Z" fill="#407BFF"/>
<path d="M83.6404 37.481L75.219 35.7207C75.1588 35.7081 75.1061 35.6721 75.0724 35.6206C75.0387 35.5692 75.0269 35.5064 75.0395 35.4462C75.052 35.386 75.088 35.3333 75.1395 35.2996C75.191 35.2659 75.2537 35.2541 75.3139 35.2667L83.7353 37.0271C83.7955 37.0396 83.8482 37.0756 83.8819 37.1271C83.9156 37.1786 83.9274 37.2413 83.9148 37.3015C83.9022 37.3617 83.8663 37.4144 83.8148 37.4481C83.7633 37.4818 83.7006 37.4936 83.6404 37.481Z" fill="#407BFF"/>
<path d="M81.5404 38.3373L76.7918 37.3447C76.7316 37.3321 76.6788 37.2961 76.6452 37.2447C76.6115 37.1932 76.5996 37.1305 76.6122 37.0703C76.6248 37.0101 76.6608 36.9573 76.7123 36.9236C76.7637 36.89 76.8265 36.8781 76.8867 36.8907L81.6535 37.8871C81.7137 37.8997 81.7664 37.9357 81.8001 37.9872C81.8338 38.0386 81.8456 38.1014 81.833 38.1616C81.8204 38.2218 81.7844 38.2745 81.733 38.3082C81.6815 38.3419 81.6188 38.3537 81.5586 38.3411L81.5404 38.3373Z" fill="#407BFF"/>
<path d="M88.1503 43.1453L71.5686 39.6792C71.5084 39.6666 71.4557 39.6306 71.422 39.5791C71.3883 39.5277 71.3765 39.4649 71.3891 39.4047C71.4017 39.3445 71.4376 39.2918 71.4891 39.2581C71.5406 39.2244 71.6033 39.2126 71.6635 39.2252L88.2339 42.689C88.2941 42.7016 88.3468 42.7375 88.3805 42.789C88.4142 42.8405 88.426 42.9032 88.4134 42.9634C88.4008 43.0236 88.3648 43.0764 88.3134 43.11C88.2619 43.1437 88.1992 43.1555 88.139 43.143L88.1503 43.1453Z" fill="#407BFF"/>
<path d="M84.3421 47.5248L67.7717 44.061C67.7115 44.0484 67.6588 44.0124 67.6251 43.961C67.5915 43.9095 67.5796 43.8468 67.5922 43.7866C67.6048 43.7264 67.6408 43.6736 67.6922 43.64C67.7437 43.6063 67.8064 43.5944 67.8666 43.607L84.437 47.0708C84.4972 47.0834 84.5499 47.1194 84.5836 47.1708C84.6173 47.2223 84.6291 47.2851 84.6165 47.3453C84.604 47.4055 84.568 47.4582 84.5165 47.4919C84.465 47.5255 84.4023 47.5374 84.3421 47.5248Z" fill="#407BFF"/>
<path d="M87.8936 44.3834L68.5471 40.3393C68.4869 40.3267 68.4342 40.2908 68.4005 40.2393C68.3669 40.1878 68.355 40.1251 68.3676 40.0649C68.3802 40.0047 68.4162 39.9519 68.4676 39.9183C68.5191 39.8846 68.5818 39.8728 68.642 39.8853L87.9885 43.9294C88.0487 43.942 88.1014 43.978 88.1351 44.0295C88.1688 44.0809 88.1806 44.1437 88.168 44.2039C88.1554 44.2641 88.1195 44.3168 88.068 44.3505C88.0165 44.3842 87.9538 44.396 87.8936 44.3834Z" fill="#407BFF"/>
<path d="M87.6319 45.6261L68.2854 41.582C68.2252 41.5694 68.1725 41.5334 68.1388 41.482C68.1051 41.4305 68.0933 41.3678 68.1059 41.3076C68.1185 41.2474 68.1544 41.1946 68.2059 41.1609C68.2574 41.1273 68.3201 41.1154 68.3803 41.128L87.7268 45.1721C87.787 45.1847 87.8397 45.2207 87.8734 45.2721C87.9071 45.3236 87.9189 45.3863 87.9063 45.4466C87.8937 45.5068 87.8577 45.5595 87.8063 45.5932C87.7548 45.6268 87.6921 45.6387 87.6319 45.6261Z" fill="#407BFF"/>
<path d="M87.3706 46.8644L68.0242 42.8203C67.964 42.8077 67.9112 42.7717 67.8776 42.7202C67.8439 42.6688 67.8321 42.606 67.8446 42.5458C67.8572 42.4856 67.8932 42.4329 67.9447 42.3992C67.9961 42.3656 68.0589 42.3537 68.1191 42.3663L87.4655 46.4104C87.5257 46.423 87.5785 46.459 87.6122 46.5104C87.6458 46.5619 87.6577 46.6246 87.6451 46.6848C87.6325 46.745 87.5965 46.7978 87.545 46.8314C87.4936 46.8651 87.4308 46.877 87.3706 46.8644Z" fill="#407BFF"/>
<path d="M85.5366 55.6302L68.9548 52.164C68.8946 52.1514 68.8419 52.1155 68.8082 52.064C68.7746 52.0125 68.7627 51.9498 68.7753 51.8896C68.7879 51.8294 68.8239 51.7766 68.8753 51.743C68.9268 51.7093 68.9895 51.6975 69.0497 51.71L85.6201 55.1738C85.6803 55.1864 85.733 55.2224 85.7667 55.2739C85.8004 55.3253 85.8122 55.3881 85.7996 55.4483C85.7871 55.5085 85.7511 55.5612 85.6996 55.5949C85.6481 55.6286 85.5854 55.6404 85.5252 55.6278L85.5366 55.6302Z" fill="#407BFF"/>
<path d="M81.7327 60.0097L65.1624 56.5459C65.1022 56.5333 65.0494 56.4973 65.0158 56.4458C64.9821 56.3944 64.9702 56.3316 64.9828 56.2714C64.9954 56.2112 65.0314 56.1585 65.0829 56.1248C65.1343 56.0911 65.1971 56.0793 65.2573 56.0919L81.8276 59.5557C81.8878 59.5683 81.9406 59.6042 81.9742 59.6557C82.0079 59.7072 82.0198 59.7699 82.0072 59.8301C81.9946 59.8903 81.9586 59.9431 81.9071 59.9767C81.8557 60.0104 81.7929 60.0222 81.7327 60.0097Z" fill="#407BFF"/>
<path d="M85.2793 56.8683L65.9329 52.8242C65.8727 52.8116 65.8199 52.7756 65.7863 52.7241C65.7526 52.6727 65.7407 52.6099 65.7533 52.5497C65.7659 52.4895 65.8019 52.4368 65.8534 52.4031C65.9048 52.3695 65.9676 52.3576 66.0278 52.3702L85.3742 56.4143C85.4344 56.4269 85.4872 56.4629 85.5208 56.5143C85.5545 56.5658 85.5664 56.6285 85.5538 56.6887C85.5412 56.7489 85.5052 56.8017 85.4537 56.8353C85.4023 56.869 85.3395 56.8809 85.2793 56.8683Z" fill="#407BFF"/>
<path d="M85.0225 58.111L65.676 54.0669C65.6158 54.0543 65.5631 54.0183 65.5294 53.9668C65.4958 53.9154 65.4839 53.8526 65.4965 53.7924C65.5091 53.7322 65.5451 53.6795 65.5965 53.6458C65.648 53.6121 65.7107 53.6003 65.7709 53.6129L85.1174 57.657C85.1776 57.6696 85.2303 57.7055 85.264 57.757C85.2977 57.8085 85.3095 57.8712 85.2969 57.9314C85.2844 57.9916 85.2484 58.0444 85.1969 58.078C85.1454 58.1117 85.0827 58.1235 85.0225 58.111Z" fill="#407BFF"/>
<path d="M84.7657 59.3492L65.4192 55.3051C65.359 55.2926 65.3063 55.2566 65.2726 55.2051C65.2389 55.1536 65.2271 55.0909 65.2397 55.0307C65.2522 54.9705 65.2882 54.9178 65.3397 54.8841C65.3912 54.8504 65.4539 54.8386 65.5141 54.8512L84.8606 58.8953C84.9208 58.9078 84.9735 58.9438 85.0072 58.9953C85.0408 59.0468 85.0527 59.1095 85.0401 59.1697C85.0275 59.2299 84.9915 59.2826 84.9401 59.3163C84.8886 59.35 84.8259 59.3618 84.7657 59.3492Z" fill="#407BFF"/>
<path d="M89.4554 36.8834L87.1333 36.3979L86.487 39.4896L88.8092 39.975L89.4554 36.8834Z" fill="#407BFF"/>
<path d="M70.8652 35.681C71.576 35.8296 72.2727 35.3738 72.4213 34.663C72.5698 33.9522 72.1141 33.2555 71.4033 33.1069C70.6924 32.9583 69.9958 33.4141 69.8472 34.1249C69.6986 34.8357 70.1544 35.5324 70.8652 35.681Z" fill="#407BFF"/>
<path d="M67.3526 45.669C67.3446 45.738 67.3627 45.8074 67.4034 45.8637C67.444 45.92 67.5041 45.9591 67.5721 45.9733C67.64 45.9875 67.7108 45.9758 67.7706 45.9405C67.8303 45.9052 67.8747 45.8488 67.8951 45.7825C67.9064 45.7455 67.9099 45.7065 67.9054 45.6681C67.9008 45.6297 67.8883 45.5927 67.8686 45.5594C67.8489 45.526 67.8225 45.4972 67.7911 45.4747C67.7596 45.4522 67.7238 45.4364 67.686 45.4285C67.6481 45.4206 67.609 45.4207 67.5712 45.4287C67.5333 45.4368 67.4976 45.4526 67.4662 45.4752C67.4348 45.4979 67.4085 45.5268 67.389 45.5602C67.3694 45.5935 67.357 45.6306 67.3526 45.669Z" fill="#407BFF"/>
<path d="M67.0959 46.9088C67.0841 46.9628 67.0887 47.019 67.109 47.0704C67.1294 47.1217 67.1645 47.1659 67.21 47.1972C67.2555 47.2285 67.3093 47.2456 67.3645 47.2463C67.4197 47.2469 67.4739 47.2311 67.5201 47.2009C67.5664 47.1706 67.6025 47.1273 67.6241 47.0765C67.6456 47.0256 67.6515 46.9695 67.641 46.9152C67.6305 46.861 67.6042 46.8111 67.5653 46.7719C67.5263 46.7327 67.4766 46.706 67.4225 46.6951C67.3508 46.6802 67.2762 46.6943 67.2149 46.7343C67.1537 46.7744 67.1109 46.8372 67.0959 46.9088Z" fill="#407BFF"/>
<path d="M66.8345 48.15C66.8266 48.219 66.8447 48.2884 66.8853 48.3447C66.9259 48.401 66.9861 48.4401 67.054 48.4543C67.122 48.4685 67.1928 48.4568 67.2525 48.4215C67.3123 48.3861 67.3567 48.3298 67.377 48.2634C67.3884 48.2264 67.3919 48.1875 67.3873 48.1491C67.3827 48.1107 67.3702 48.0736 67.3505 48.0403C67.3309 48.007 67.3045 47.9782 67.273 47.9556C67.2416 47.9331 67.2058 47.9174 67.1679 47.9095C67.13 47.9016 67.0909 47.9016 67.0531 47.9097C67.0153 47.9177 66.9795 47.9336 66.9481 47.9562C66.9168 47.9788 66.8905 48.0078 66.8709 48.0411C66.8513 48.0745 66.8389 48.1116 66.8345 48.15Z" fill="#407BFF"/>
<path d="M66.5772 49.3883C66.5692 49.4572 66.5874 49.5267 66.628 49.583C66.6686 49.6393 66.7288 49.6783 66.7967 49.6925C66.8646 49.7067 66.9354 49.695 66.9952 49.6597C67.055 49.6244 67.0994 49.5681 67.1197 49.5017C67.131 49.4647 67.1345 49.4258 67.13 49.3873C67.1254 49.3489 67.1129 49.3119 67.0932 49.2786C67.0735 49.2453 67.0471 49.2164 67.0157 49.1939C66.9842 49.1714 66.9484 49.1557 66.9106 49.1478C66.8727 49.1398 66.8336 49.1399 66.7958 49.148C66.7579 49.156 66.7222 49.1718 66.6908 49.1945C66.6594 49.2171 66.6331 49.246 66.6136 49.2794C66.594 49.3128 66.5816 49.3499 66.5772 49.3883Z" fill="#407BFF"/>
<path d="M71.4756 46.7667L68.5247 46.1499C68.4645 46.1373 68.4117 46.1013 68.3781 46.0498C68.3444 45.9984 68.3325 45.9356 68.3451 45.8754C68.3577 45.8152 68.3937 45.7625 68.4452 45.7288C68.4966 45.6951 68.5594 45.6833 68.6196 45.6959L71.5705 46.3127C71.6307 46.3253 71.6834 46.3613 71.7171 46.4128C71.7507 46.4642 71.7626 46.527 71.75 46.5872C71.7374 46.6474 71.7014 46.7001 71.65 46.7338C71.5985 46.7674 71.5358 46.7793 71.4756 46.7667Z" fill="#407BFF"/>
<path d="M73.9816 48.5853L68.2547 47.3882C68.1944 47.3756 68.1417 47.3396 68.108 47.2881C68.0744 47.2366 68.0625 47.1739 68.0751 47.1137C68.0877 47.0535 68.1237 47.0008 68.1751 46.9671C68.2266 46.9334 68.2893 46.9216 68.3495 46.9342L74.0765 48.1313C74.1367 48.1439 74.1895 48.1799 74.2231 48.2313C74.2568 48.2828 74.2687 48.3455 74.2561 48.4058C74.2435 48.466 74.2075 48.5187 74.156 48.5524C74.1046 48.586 74.0418 48.5979 73.9816 48.5853Z" fill="#407BFF"/>
<path d="M70.3199 49.1143L67.9978 48.6289C67.9376 48.6163 67.8849 48.5803 67.8512 48.5288C67.8175 48.4774 67.8057 48.4146 67.8183 48.3544C67.8309 48.2942 67.8668 48.2415 67.9183 48.2078C67.9698 48.1742 68.0325 48.1623 68.0927 48.1749L70.4148 48.6603C70.475 48.6729 70.5278 48.7089 70.5614 48.7603C70.5951 48.8118 70.607 48.8745 70.5944 48.9347C70.5818 48.9949 70.5458 49.0477 70.4943 49.0813C70.4429 49.115 70.3801 49.1269 70.3199 49.1143Z" fill="#407BFF"/>
<path d="M72.5595 50.8765L67.7405 49.8691C67.6803 49.8565 67.6276 49.8205 67.5939 49.7691C67.5602 49.7176 67.5484 49.6549 67.5609 49.5947C67.5735 49.5345 67.6095 49.4817 67.661 49.4481C67.7125 49.4144 67.7752 49.4025 67.8354 49.4151L72.6544 50.4225C72.7146 50.4351 72.7674 50.471 72.801 50.5225C72.8347 50.574 72.8465 50.6367 72.834 50.6969C72.8214 50.7571 72.7854 50.8099 72.7339 50.8435C72.6825 50.8772 72.6197 50.889 72.5595 50.8765Z" fill="#407BFF"/>
<path opacity="0.5" d="M87.2565 62.9087L81.5317 66.654L82.5215 61.9189L87.2565 62.9087Z" fill="#407BFF"/>
<path opacity="0.2" d="M89.4554 36.8834L86.487 39.4896L88.8092 39.975L89.4554 36.8834Z" fill="black"/>
<path opacity="0.2" d="M72.0421 33.8019L70.5371 33.4873L70.2225 34.9923L71.7275 35.3068L72.0421 33.8019Z" fill="black"/>
<path opacity="0.4" d="M92.9361 35.716L91.5991 35.4365L85.9152 62.6278L87.2522 62.9073L92.9361 35.716Z" fill="black"/>
<path d="M91.1965 40.7047C91.0659 40.6774 90.9514 40.5993 90.8784 40.4877C90.8053 40.376 90.7796 40.2398 90.8069 40.1092L91.3853 37.3422C91.4126 37.2115 91.4907 37.0971 91.6024 37.024C91.7141 36.951 91.8502 36.9253 91.9809 36.9526C92.1115 36.9799 92.2259 37.058 92.299 37.1697C92.3721 37.2813 92.3978 37.4175 92.3705 37.5481L91.7897 40.3265C91.7598 40.4545 91.681 40.5658 91.5702 40.6365C91.4593 40.7072 91.3252 40.7317 91.1965 40.7047Z" fill="#407BFF"/>
<path opacity="0.4" d="M91.1965 40.7047C91.0659 40.6774 90.9514 40.5993 90.8784 40.4877C90.8053 40.376 90.7796 40.2398 90.8069 40.1092L91.3853 37.3422C91.4126 37.2115 91.4907 37.0971 91.6024 37.024C91.7141 36.951 91.8502 36.9253 91.9809 36.9526C92.1115 36.9799 92.2259 37.058 92.299 37.1697C92.3721 37.2813 92.3978 37.4175 92.3705 37.5481L91.7897 40.3265C91.7598 40.4545 91.681 40.5658 91.5702 40.6365C91.4593 40.7072 91.3252 40.7317 91.1965 40.7047Z" fill="white"/>
<path d="M38.0998 36.3739L46.0263 38.0308C46.331 38.0951 46.5977 38.2777 46.768 38.5385C46.9382 38.7993 46.998 39.1169 46.9343 39.4217L45.3239 47.1258C45.2602 47.4305 45.0781 47.6973 44.8177 47.8677C44.5573 48.038 44.2398 48.098 43.9352 48.0343L40.7165 47.3615L40.5784 49.7562L39.4748 47.1019L36.0087 46.3774C35.8577 46.3461 35.7144 46.2854 35.5869 46.1986C35.4595 46.1118 35.3504 46.0008 35.266 45.8717C35.1816 45.7427 35.1235 45.5983 35.095 45.4468C35.0666 45.2952 35.0683 45.1396 35.1002 44.9887L36.7106 37.2846C36.7419 37.1336 36.8026 36.9901 36.8894 36.8625C36.9762 36.735 37.0873 36.6258 37.2163 36.5412C37.3453 36.4566 37.4898 36.3982 37.6414 36.3695C37.793 36.3408 37.9487 36.3423 38.0998 36.3739Z" fill="#407BFF"/>
<path opacity="0.6" d="M38.0998 36.3739L46.0263 38.0308C46.331 38.0951 46.5977 38.2777 46.768 38.5385C46.9382 38.7993 46.998 39.1169 46.9343 39.4217L45.3239 47.1258C45.2602 47.4305 45.0781 47.6973 44.8177 47.8677C44.5573 48.038 44.2398 48.098 43.9352 48.0343L40.7165 47.3615L40.5784 49.7562L39.4748 47.1019L36.0087 46.3774C35.8577 46.3461 35.7144 46.2854 35.5869 46.1986C35.4595 46.1118 35.3504 46.0008 35.266 45.8717C35.1816 45.7427 35.1235 45.5983 35.095 45.4468C35.0666 45.2952 35.0683 45.1396 35.1002 44.9887L36.7106 37.2846C36.7419 37.1336 36.8026 36.9901 36.8894 36.8625C36.9762 36.735 37.0873 36.6258 37.2163 36.5412C37.3453 36.4566 37.4898 36.3982 37.6414 36.3695C37.793 36.3408 37.9487 36.3423 38.0998 36.3739Z" fill="white"/>
<path d="M40.6978 40.4656L40.5692 41.0808L40.8809 41.1767C40.8773 41.3867 40.9141 41.5955 40.9892 41.7916L40.736 41.9945L41.0789 42.5187L41.3685 42.3684C41.5186 42.5153 41.695 42.6326 41.8886 42.714L41.8521 43.0357L42.465 43.1638L42.5627 42.855C42.7726 42.8569 42.9811 42.8202 43.1776 42.7466L43.3806 42.9999L43.9047 42.6569L43.754 42.3696C43.9005 42.2192 44.0177 42.0429 44.0996 41.8495L44.4213 41.886L44.5499 41.2708L44.2405 41.1754C44.2429 40.9654 44.2062 40.7569 44.1321 40.5604L44.3854 40.3575L44.0498 39.8325L43.7619 39.9855C43.6113 39.8394 43.435 39.7222 43.2419 39.6399L43.2765 39.3155L42.6637 39.1874L42.5677 39.499C42.3578 39.4961 42.1491 39.5329 41.9528 39.6074L41.7481 39.3514L41.2348 39.6989L41.3855 39.9863C41.2381 40.1359 41.1208 40.3125 41.0399 40.5063L40.6978 40.4656ZM42.7414 40.3455C42.9064 40.3796 43.0577 40.4618 43.1759 40.5819C43.2942 40.702 43.3741 40.8545 43.4056 41.02C43.4371 41.1856 43.4187 41.3567 43.3528 41.5118C43.2869 41.6669 43.1765 41.799 43.0354 41.8913C42.8944 41.9835 42.7292 42.0318 42.5607 42.0301C42.3922 42.0283 42.228 41.9766 42.0889 41.8814C41.9498 41.7862 41.8421 41.6519 41.7795 41.4955C41.7168 41.339 41.702 41.1675 41.7369 41.0027C41.7836 40.7826 41.9154 40.59 42.1036 40.4669C42.2918 40.3437 42.5211 40.3001 42.7414 40.3455Z" fill="#F5F5F5"/>
<path d="M40.1621 45.0327C40.3304 45.0339 40.4973 45.0037 40.6545 44.9438L40.8143 45.143L41.2259 44.8737L41.1074 44.6475C41.2253 44.5275 41.3198 44.3866 41.3861 44.232L41.6383 44.261L41.7379 43.7843L41.4953 43.7099C41.4973 43.5416 41.4671 43.3744 41.4063 43.2175L41.6055 43.0578L41.3362 42.6461L41.1101 42.7647C40.9914 42.6451 40.8502 42.5503 40.6945 42.4859L40.724 42.2315L40.2428 42.1309L40.1656 42.3753C39.9972 42.372 39.8298 42.4022 39.6732 42.4643L39.5157 42.2656L39.1041 42.5349L39.2226 42.761C39.1025 42.8795 39.007 43.0205 38.9416 43.1761L38.6894 43.1471L38.5889 43.6283L38.8315 43.7027C38.8301 43.8713 38.861 44.0387 38.9228 44.1956L38.7235 44.3553L38.9928 44.767L39.2167 44.648C39.3368 44.7658 39.4777 44.8604 39.6323 44.9267L39.6055 45.1794L40.0868 45.28L40.1621 45.0327ZM39.5189 43.5763C39.5478 43.4474 39.6142 43.33 39.7097 43.2388C39.8053 43.1476 39.9258 43.0869 40.0559 43.0642C40.186 43.0415 40.32 43.0579 40.4408 43.1113C40.5616 43.1647 40.6638 43.2528 40.7346 43.3643C40.8054 43.4758 40.8415 43.6058 40.8384 43.7379C40.8353 43.8699 40.7931 43.9981 40.7171 44.1061C40.6412 44.2142 40.5349 44.2973 40.4117 44.345C40.2885 44.3926 40.1539 44.4027 40.025 44.3739C39.9383 44.3561 39.8559 44.3211 39.7828 44.2711C39.7097 44.221 39.6474 44.1569 39.5994 44.0825C39.5514 44.008 39.5188 43.9247 39.5034 43.8375C39.488 43.7502 39.4902 43.6608 39.5098 43.5744L39.5189 43.5763Z" fill="#F5F5F5"/>
<path d="M39.475 42.0547L39.5752 42.2439L39.9563 42.0866L39.8926 41.8814C40.01 41.805 40.1111 41.7062 40.1903 41.5907L40.3949 41.6547L40.5528 41.2732L40.3631 41.1719C40.3889 41.0358 40.3892 40.8961 40.364 40.7599L40.5531 40.6596L40.3959 40.2785L40.1912 40.3399C40.1149 40.2225 40.016 40.1213 39.9004 40.0423L39.9645 39.8377L39.582 39.6843L39.4812 39.8717C39.3449 39.8455 39.2048 39.846 39.0687 39.8731L38.9684 39.684L38.5873 39.8412L38.6487 40.0459C38.5321 40.1233 38.4311 40.2219 38.351 40.3367L38.146 40.2749L37.9881 40.6565L38.176 40.755C38.1499 40.8921 38.1502 41.0328 38.1769 41.1698L37.9877 41.27L38.145 41.6511L38.3502 41.5874C38.4276 41.704 38.5263 41.805 38.641 41.8851L38.5792 42.0902L38.9607 42.2481L39.0597 42.0579C39.1972 42.0822 39.3379 42.0811 39.475 42.0547ZM38.7504 40.7495C38.807 40.6124 38.9158 40.5035 39.0528 40.4466C39.1897 40.3897 39.3437 40.3895 39.4807 40.4461C39.6178 40.5027 39.7268 40.6115 39.7837 40.7484C39.8406 40.8854 39.8407 41.0394 39.7841 41.1764C39.7561 41.2443 39.715 41.306 39.6631 41.358C39.6112 41.41 39.5496 41.4512 39.4818 41.4794C39.414 41.5076 39.3413 41.5221 39.2679 41.5222C39.1944 41.5222 39.1217 41.5079 39.0538 41.4798C38.9859 41.4518 38.9242 41.4107 38.8723 41.3588C38.8203 41.3069 38.779 41.2453 38.7509 41.1775C38.7227 41.1097 38.7082 41.037 38.7081 40.9635C38.708 40.8901 38.7224 40.8174 38.7504 40.7495Z" fill="#F5F5F5"/>
<path d="M45.2697 67.2947C45.2697 67.2947 44.7775 72.437 44.8339 73.0742C44.8902 73.7114 46.7794 77.4468 46.7794 77.4468L45.976 77.6745C45.976 77.6745 43.8376 74.304 43.5778 73.3826C43.3179 72.4612 43.575 67.9899 43.575 67.9899L45.2697 67.2947Z" fill="#EBB376"/>
<path d="M45.2258 64.9488C46.0634 65.6451 44.914 72.685 44.914 72.685L45.2374 73.5179L43.5719 74.2548C43.3434 73.607 43.1655 72.9425 43.0397 72.2672C42.9137 71.4306 43.0314 67.4562 43.0314 67.4562L45.2258 64.9488Z" fill="#263238"/>
<path opacity="0.1" d="M45.2258 64.9488C46.0634 65.6451 44.914 72.685 44.914 72.685L45.2374 73.5179L43.5719 74.2548C43.3434 73.607 43.1655 72.9425 43.0397 72.2672C42.9137 71.4306 43.0314 67.4562 43.0314 67.4562L45.2258 64.9488Z" fill="white"/>
<path d="M43.3596 74.2023L45.2963 73.2331L45.4966 74.0544L43.7362 74.8259L43.3596 74.2023Z" fill="#407BFF"/>
<path opacity="0.4" d="M43.3596 74.2023L45.2963 73.2331L45.4966 74.0544L43.7362 74.8259L43.3596 74.2023Z" fill="white"/>
<path d="M39.6344 73.165L40.7709 76.2053C44.3009 76.1258 55.4338 76.7354 55.9833 80.7143C56.6699 85.6576 44.002 86.838 37.37 85.6862C30.738 84.5344 26.2352 79.6794 32.4076 70.9484L39.6344 73.165Z" fill="#407BFF"/>
<path opacity="0.2" d="M39.6344 73.165L40.7709 76.2053C44.3009 76.1258 55.4338 76.7354 55.9833 80.7143C56.6699 85.6576 44.002 86.838 37.37 85.6862C30.738 84.5344 26.2352 79.6794 32.4076 70.9484L39.6344 73.165Z" fill="black"/>
<path d="M52.7094 86.825C52.7013 86.8279 52.6926 86.8285 52.6841 86.8267C52.6757 86.825 52.668 86.8209 52.6617 86.815C52.6564 86.8092 52.6533 86.8017 52.6528 86.7939C52.6523 86.786 52.6544 86.7782 52.6589 86.7718C52.695 86.7011 53.0453 86.1134 53.2747 86.0926C53.2993 86.0917 53.3237 86.0974 53.3454 86.109C53.3671 86.1206 53.3854 86.1378 53.3983 86.1587C53.4238 86.1906 53.4405 86.2286 53.4466 86.269C53.4528 86.3094 53.4481 86.3507 53.4331 86.3887C53.372 86.4992 53.2781 86.588 53.1644 86.6429C53.0188 86.7178 52.8665 86.7787 52.7094 86.825ZM52.7918 86.7142C53.0162 86.6663 53.2163 86.5402 53.3565 86.3585C53.3675 86.3325 53.3709 86.3039 53.3662 86.2761C53.3615 86.2482 53.349 86.2223 53.3302 86.2013C53.3255 86.1926 53.3184 86.1854 53.3097 86.1807C53.301 86.1759 53.2911 86.1738 53.2813 86.1745C53.2618 86.1785 53.243 86.1849 53.2252 86.1936C53.0533 86.3385 52.9085 86.5128 52.7977 86.7084L52.7918 86.7142Z" fill="#407BFF"/>
<path d="M52.71 86.8257C52.7023 86.8277 52.6941 86.8268 52.687 86.8231C52.6799 86.8194 52.6744 86.8133 52.6715 86.8058C52.6549 86.7834 52.4309 86.3362 52.5349 86.0878C52.5474 86.0568 52.566 86.0287 52.5896 86.0051C52.6133 85.9816 52.6415 85.9631 52.6726 85.9508C52.7002 85.9335 52.7329 85.9262 52.7652 85.9299C52.7976 85.9337 52.8277 85.9483 52.8507 85.9714C52.9886 86.1163 52.8604 86.6273 52.7429 86.8041L52.7387 86.8246L52.71 86.8257ZM52.6946 86.0383C52.6626 86.0562 52.6375 86.0843 52.6234 86.1182C52.591 86.3134 52.6231 86.5139 52.7148 86.6893C52.8122 86.4727 52.8699 86.1176 52.7906 86.0323C52.7906 86.0323 52.7653 86.0057 52.7105 86.0298L52.6946 86.0383Z" fill="#407BFF"/>
<path d="M40.9093 85.4778C40.915 85.4712 40.9226 85.4665 40.9311 85.4644C40.9396 85.4624 40.9486 85.4631 40.9567 85.4664C40.964 85.4689 40.9702 85.4738 40.9745 85.4802C40.9787 85.4867 40.9806 85.4944 40.98 85.5021C40.9802 85.5803 40.9579 86.265 40.7607 86.4039C40.7402 86.4171 40.7165 86.4243 40.6921 86.4246C40.6677 86.425 40.6437 86.4185 40.6229 86.4058C40.5852 86.3904 40.5523 86.3653 40.5275 86.333C40.5026 86.3008 40.4866 86.2626 40.4812 86.2222C40.4806 86.0965 40.5196 85.9737 40.5925 85.8712C40.6849 85.7299 40.791 85.5982 40.9093 85.4778ZM40.8813 85.6117C40.7084 85.7614 40.594 85.9674 40.5583 86.1933C40.5613 86.2215 40.5722 86.2482 40.5898 86.2704C40.6074 86.2925 40.631 86.3092 40.6578 86.3184C40.6656 86.3244 40.6752 86.3277 40.6851 86.3276C40.695 86.3275 40.7046 86.3241 40.7123 86.3179C40.7286 86.3063 40.7422 86.2914 40.7523 86.2742C40.8391 86.0647 40.8874 85.8412 40.8949 85.6146L40.8813 85.6117Z" fill="#407BFF"/>
<path d="M45.9177 83.0479L43.0057 83.4461L41.6083 83.6372L41.644 85.1325L42.9602 85.1257L46.1754 85.1131L45.9177 83.0479Z" fill="#EBB376"/>
<path d="M41.9872 85.2708L42.1113 83.5436C42.113 83.5206 42.11 83.4975 42.1025 83.4756C42.095 83.4538 42.0832 83.4337 42.0678 83.4165C42.0523 83.3994 42.0336 83.3855 42.0127 83.3758C41.9918 83.366 41.9691 83.3606 41.946 83.3598L41.0886 83.3251C41.0886 83.3251 39.9313 83.1945 39.6441 83.4353C38.8111 84.1449 38.4405 87.9575 38.8511 88.1807C39 88.2616 39.2136 88.0788 39.3157 87.9414C39.6433 87.5077 40.2893 86.3326 40.5612 85.9725C40.8855 85.5546 41.5322 85.4529 41.8217 85.4281C41.8637 85.4267 41.9039 85.41 41.9344 85.381C41.9649 85.352 41.9837 85.3128 41.9872 85.2708Z" fill="#263238"/>
<path d="M40.9237 85.4661C40.9306 85.4635 40.9381 85.463 40.9453 85.4645C40.9525 85.466 40.9592 85.4695 40.9645 85.4746C40.9918 85.4803 41.4027 85.7699 41.4303 86.0458C41.4371 86.1131 41.417 86.1804 41.3745 86.2331C41.3586 86.2616 41.3336 86.2839 41.3035 86.2965C41.2733 86.3091 41.2399 86.3113 41.2084 86.3026C41.0197 86.2419 40.8822 85.7322 40.8968 85.5268L40.901 85.5063C40.9004 85.4982 40.9022 85.49 40.9063 85.4828C40.9103 85.4756 40.9163 85.4698 40.9237 85.4661ZM41.3184 86.1503C41.3369 86.118 41.3447 86.0807 41.3407 86.0436C41.3217 85.8738 41.0992 85.6804 40.9831 85.5898C41.0016 85.8188 41.1254 86.1668 41.2366 86.2019C41.2366 86.2019 41.2706 86.209 41.3055 86.1666L41.3093 86.1484L41.3184 86.1503Z" fill="#407BFF"/>
<path opacity="0.2" d="M45.9197 83.0485L43.0078 83.4466L42.9623 85.1263L46.1774 85.1137L45.9197 83.0485Z" fill="black"/>
<path d="M43.3863 85.4692L44.1557 85.6869L44.194 82.897L43.2085 83.2027L43.3863 85.4692Z" fill="#407BFF"/>
<path opacity="0.6" d="M43.3863 85.4692L44.1557 85.6869L44.194 82.897L43.2085 83.2027L43.3863 85.4692Z" fill="white"/>
<path opacity="0.2" d="M34.2642 72.6885L37.3818 78.0381C37.3818 78.0381 41.8903 78.8763 46.7816 82.6777C46.7816 82.6777 53.1314 81.4843 54.0889 79.5902C55.342 77.1087 40.7665 76.2059 40.7665 76.2059L34.2642 72.6885Z" fill="black"/>
<path d="M52.6355 79.8457L52.496 80.513C52.4604 80.6833 52.2436 80.7114 52.0757 80.6763L38.749 77.8905C38.5788 77.855 38.3869 77.7414 38.4225 77.5712L38.562 76.9038L52.6355 79.8457Z" fill="#263238"/>
<path opacity="0.4" d="M52.6355 79.8457L52.496 80.513C52.4604 80.6833 52.2436 80.7114 52.0757 80.6763L38.749 77.8905C38.5788 77.855 38.3869 77.7414 38.4225 77.5712L38.562 76.9038L52.6355 79.8457Z" fill="white"/>
<path opacity="0.2" d="M52.6367 79.8449L52.4972 80.5123C52.4616 80.6825 52.2448 80.7107 52.0769 80.6755L43.2878 78.8383C43.1175 78.8027 42.9279 78.6896 42.9635 78.5194L43.103 77.8521L52.6367 79.8449Z" fill="black"/>
<path d="M56.3139 73.3899L53.2208 80.2534C53.1675 80.3624 53.0798 80.4509 52.9713 80.5052C52.8628 80.5596 52.7394 80.5768 52.6202 80.5543L43.9582 78.7436C43.9041 78.7314 43.8537 78.7066 43.8109 78.6714C43.7682 78.6361 43.7343 78.5913 43.7119 78.5406C43.6896 78.4898 43.6795 78.4346 43.6823 78.3792C43.6852 78.3239 43.701 78.2699 43.7285 78.2218L46.8102 71.4128C46.8649 71.3108 46.9531 71.2307 47.06 71.1862C47.1668 71.1416 47.2857 71.1353 47.3967 71.1682L56.0632 72.9798C56.3034 73.0324 56.415 73.1671 56.3139 73.3899Z" fill="#263238"/>
<path opacity="0.4" d="M56.3149 73.3878L53.2218 80.2513C53.1684 80.3603 53.0808 80.4487 52.9722 80.5031C52.8637 80.5574 52.7404 80.5747 52.6211 80.5521L44.2542 78.8032C44.2002 78.7906 44.1497 78.7658 44.1069 78.7305C44.064 78.6953 44.0299 78.6506 44.0073 78.5999C43.9846 78.5493 43.9739 78.4941 43.9761 78.4387C43.9783 78.3832 43.9933 78.329 44.02 78.2804L47.1017 71.4714C47.1567 71.372 47.2434 71.2939 47.348 71.2497C47.4526 71.2054 47.569 71.1975 47.6787 71.2271L56.0501 72.9771C56.3043 73.0302 56.416 73.1649 56.3149 73.3878Z" fill="white"/>
<path opacity="0.2" d="M51.2735 76.1514C51.1444 76.7689 50.3795 77.1302 49.9051 77.031C49.4307 76.9318 49.2377 76.3703 49.5052 75.7818C49.7728 75.1933 50.3541 74.815 50.8323 74.896C50.5648 75.4845 50.756 76.0433 51.2395 76.1443C51.2506 76.1475 51.262 76.1499 51.2735 76.1514Z" fill="black"/>
<path d="M47.1538 86.5242L49.8934 87.5849L51.2084 88.0943L51.8998 86.77L50.746 86.1355L47.9273 84.5916L47.1538 86.5242Z" fill="#EBB376"/>
<path d="M51.6723 86.4777L50.7273 87.9386C50.7131 87.9578 50.7031 87.9799 50.698 88.0033C50.6929 88.0267 50.6928 88.0509 50.6978 88.0743C50.7027 88.0977 50.7126 88.1198 50.7267 88.1392C50.7409 88.1585 50.7589 88.1746 50.7798 88.1864L51.5136 88.6312C51.5136 88.6312 52.456 89.3021 52.8224 89.227C53.8935 89.0103 56.063 85.8509 55.8131 85.4599C55.7225 85.3154 55.4431 85.3825 55.2907 85.4431C54.7984 85.6671 53.6589 86.3813 53.2489 86.5633C52.7663 86.7751 52.1456 86.5482 51.8811 86.4313C51.8463 86.4134 51.8064 86.4083 51.7683 86.4167C51.7302 86.4252 51.6962 86.4468 51.6723 86.4777Z" fill="#263238"/>
<path opacity="0.2" d="M47.1538 86.5242L49.8934 87.5849L50.746 86.1355L47.9273 84.5916L47.1538 86.5242Z" fill="black"/>
<path d="M50.3293 85.7402C50.3293 85.7402 40.1126 76.8147 36.0878 76.1676C32.0629 75.5206 30.7441 78.917 31.9327 81.4587C33.1214 84.0005 36.0501 85.1765 36.0501 85.1765C36.0501 85.1765 34.5893 81.8174 35.0612 81.0561C35.533 80.2947 36.4638 81.6904 36.4638 81.6904C36.4638 81.6904 43.2459 85.5578 49.5005 87.4385L50.3293 85.7402Z" fill="#407BFF"/>
<path d="M50.5454 85.6007L49.9837 85.0237L48.6012 87.4331L49.6113 87.6442L50.5454 85.6007Z" fill="#407BFF"/>
<path opacity="0.6" d="M50.5454 85.6007L49.9837 85.0237L48.6012 87.4331L49.6113 87.6442L50.5454 85.6007Z" fill="white"/>
<path d="M32.4041 70.9494L39.6322 73.171C39.6322 73.171 41.2877 71.0201 42.3702 70.2727C43.4528 69.5253 45.2271 64.9471 45.2271 64.9471C44.6884 64.5318 44.1239 64.1511 43.537 63.8073C41.8462 62.8177 40.0104 62.0998 38.0968 61.6798L38.0651 61.6732C37.5157 61.5583 37.1923 61.5191 37.1923 61.5191C36.9376 61.6231 36.714 61.791 36.5431 62.0065C35.4685 63.2033 34.1754 66.2498 33.3263 68.4532C32.7659 69.876 32.4041 70.9494 32.4041 70.9494Z" fill="#263238"/>
<path opacity="0.2" d="M33.3168 68.4534C35.0977 68.0486 37.5788 67.2524 37.7301 65.9502C37.8985 64.5213 37.0564 62.8717 36.5336 62.0067C35.459 63.2035 34.166 66.25 33.3168 68.4534Z" fill="black"/>
<path d="M38.4584 61.7639C38.4584 61.7639 38.7203 64.7042 40.9549 65.484C43.1894 66.2638 44.0367 64.1145 44.0367 64.1145C44.0367 64.1145 41.4182 61.8732 38.4584 61.7639Z" fill="#263238"/>
<path opacity="0.1" d="M38.4584 61.7639C38.4584 61.7639 38.7203 64.7042 40.9549 65.484C43.1894 66.2638 44.0367 64.1145 44.0367 64.1145C44.0367 64.1145 41.4182 61.8732 38.4584 61.7639Z" fill="white"/>
<path d="M38.9176 61.9405C38.9176 61.9405 39.4652 64.7273 41.4173 65.1354C43.3694 65.5434 43.731 64.1194 43.731 64.1194C43.731 64.1194 42.0465 62.4311 38.9176 61.9405Z" fill="#407BFF"/>
<path opacity="0.4" d="M38.9176 61.9405C38.9176 61.9405 39.4652 64.7273 41.4173 65.1354C43.3694 65.5434 43.731 64.1194 43.731 64.1194C43.731 64.1194 42.0465 62.4311 38.9176 61.9405Z" fill="white"/>
<path d="M42.3725 63.0816C42.2912 63.5384 42.5286 63.7065 42.5286 63.7065C42.5217 63.8518 42.4817 63.9936 42.4114 64.121C42.3412 64.2484 42.2426 64.358 42.1234 64.4413C42.0041 64.5246 41.8673 64.5794 41.7235 64.6016C41.5798 64.6237 41.4328 64.6126 41.294 64.569C39.8789 64.1192 39.7866 62.2828 39.7866 62.2828C40.9249 62.0848 41.4034 60.9743 41.5935 60.2914C41.6439 60.1142 41.6816 59.9337 41.7065 59.7512L43.4136 61.3992C43.1899 61.6407 42.9834 61.8975 42.7957 62.1679C42.5945 62.4408 42.4505 62.7516 42.3725 63.0816Z" fill="#EBB376"/>
<path opacity="0.2" d="M43.3218 61.22C43.1233 61.4857 42.943 61.7646 42.7825 62.0549C42.6106 62.3455 42.4996 62.6681 42.4563 63.003C41.3329 62.8582 41.4026 60.326 41.4026 60.326L41.4059 60.3101C41.4386 60.1286 41.458 59.945 41.4639 59.7607L43.3218 61.22Z" fill="black"/>
<path d="M45.7208 56.0305C45.7208 56.0305 47.5118 54.6707 46.0753 52.9181C44.6388 51.1656 41.0961 51.0789 39.8102 54.0913C38.5242 57.1037 39.1024 58.6105 39.1024 58.6105C39.1024 58.6105 39.5209 56.6084 40.2194 56.1456C40.2194 56.1456 39.8467 57.0674 39.8991 57.6778C39.9516 58.2881 39.855 57.8889 39.855 57.8889C39.855 57.8889 40.9105 55.4916 43.3205 56.7464C45.7306 58.0012 45.7208 56.0305 45.7208 56.0305Z" fill="#263238"/>
<path d="M45.9526 56.6429C47.7333 57.6216 47.7837 58.8877 46.9067 60.794C45.8128 63.1713 44.4069 64.5358 42.4566 62.8156C39.7921 60.4889 42.9963 55.0204 45.9526 56.6429Z" fill="#EBB376"/>
<path d="M45.8114 60.0639C45.807 60.4081 45.8442 60.7515 45.9221 61.0868C45.83 61.1319 45.7272 61.1506 45.6252 61.141C45.5231 61.1314 45.4256 61.0937 45.3436 61.0322L45.8114 60.0639Z" fill="#D58745"/>
<path d="M44.8014 59.3222C44.7232 59.4693 44.5811 59.5486 44.4838 59.4927C44.3865 59.4368 44.3674 59.2788 44.4433 59.1312C44.5191 58.9836 44.6635 58.9048 44.7608 58.9607C44.8581 59.0166 44.8777 59.1723 44.8014 59.3222Z" fill="#263238"/>
<path d="M44.7165 58.9463L45.1037 58.987C45.1037 58.987 44.8037 59.1754 44.7165 58.9463Z" fill="#263238"/>
<path d="M46.6551 60.2455C46.5792 60.3931 46.4371 60.4724 46.3398 60.4165C46.2425 60.3606 46.2234 60.2027 46.2992 60.055C46.3751 59.9074 46.5195 59.8286 46.6168 59.8845C46.7141 59.9404 46.7332 60.0984 46.6551 60.2455Z" fill="#263238"/>
<path d="M46.5725 59.8701L46.9596 59.9108C46.9596 59.9108 46.6574 60.0987 46.5725 59.8701Z" fill="#263238"/>
<path d="M44.5179 58.0086C44.5006 58.0042 44.4852 57.9945 44.4736 57.9809C44.4621 57.9673 44.4551 57.9504 44.4536 57.9326C44.4521 57.9149 44.4562 57.8971 44.4653 57.8817C44.4744 57.8664 44.488 57.8543 44.5043 57.847C44.6725 57.7945 44.8506 57.7822 45.0244 57.8111C45.1982 57.84 45.3627 57.9093 45.5048 58.0135C45.5223 58.0265 45.5341 58.0458 45.5376 58.0673C45.541 58.0889 45.5359 58.1109 45.5234 58.1287C45.5171 58.1379 45.509 58.1458 45.4996 58.1518C45.4902 58.1579 45.4797 58.1619 45.4687 58.1638C45.4577 58.1657 45.4464 58.1654 45.4355 58.1629C45.4247 58.1603 45.4144 58.1557 45.4054 58.1491C45.2857 58.063 45.1481 58.0051 45.0028 57.9796C44.8576 57.9542 44.7085 57.9619 44.5666 58.0022C44.5517 58.01 44.5344 58.0123 44.5179 58.0086Z" fill="#263238"/>
<path d="M47.4041 59.3349C47.3921 59.332 47.3808 59.3268 47.371 59.3194C47.3611 59.3121 47.3528 59.3028 47.3467 59.2921C47.2959 59.1722 47.2183 59.0654 47.12 58.98C47.0217 58.8946 46.9051 58.8327 46.7793 58.7992C46.7576 58.7953 46.7382 58.7833 46.7252 58.7656C46.7121 58.7479 46.7064 58.7258 46.7092 58.704C46.7108 58.6931 46.7145 58.6827 46.7202 58.6733C46.7259 58.6638 46.7334 58.6557 46.7422 58.6491C46.751 58.6426 46.7611 58.6379 46.7718 58.6353C46.7824 58.6327 46.7935 58.6322 46.8044 58.6338C46.9565 58.6701 47.0982 58.7412 47.2182 58.8415C47.3383 58.9419 47.4334 59.0687 47.4961 59.212C47.5083 59.231 47.5126 59.254 47.508 59.2761C47.5034 59.2982 47.4902 59.3175 47.4714 59.33C47.4611 59.3352 47.4498 59.3383 47.4382 59.3392C47.4267 59.34 47.4151 59.3386 47.4041 59.3349Z" fill="#263238"/>
<path d="M42.3551 58.5755C42.3551 58.5755 43.987 57.5686 44.4745 56.3699C44.4745 56.3699 48.7941 56.8653 47.0021 60.5419C47.0021 60.5419 49.0937 57.551 46.0717 55.8011C43.0497 54.0512 40.6126 58.5358 41.4627 60.7367C41.4627 60.7367 41.3395 59.2066 42.3551 58.5755Z" fill="#263238"/>
<path d="M44.7281 61.7966C44.4745 61.7461 44.2475 61.6059 44.0887 61.4018C43.93 61.1976 43.8501 60.9431 43.8636 60.6848C43.8662 60.6625 43.8772 60.6421 43.8943 60.6276C43.9114 60.6132 43.9334 60.6057 43.9557 60.6069C43.9777 60.6095 43.9979 60.6204 44.012 60.6375C44.0261 60.6546 44.033 60.6764 44.0313 60.6985C44.0185 60.9174 44.0862 61.1334 44.2217 61.3057C44.3572 61.4781 44.5511 61.5949 44.7668 61.6341C44.7885 61.6386 44.8075 61.6516 44.8196 61.6701C44.8317 61.6886 44.836 61.7112 44.8315 61.7329C44.8269 61.7545 44.814 61.7735 44.7955 61.7856C44.7769 61.7978 44.7544 61.802 44.7327 61.7975L44.7281 61.7966Z" fill="#263238"/>
<path d="M42.1113 58.1261C42.1058 58.1378 42.1044 58.1511 42.1074 58.1637C42.1103 58.1764 42.1174 58.1877 42.1275 58.1958L42.1412 58.1986L43.9825 59.0574C43.9129 59.2349 43.9044 59.4306 43.9584 59.6135C44.0125 59.7964 44.1259 59.9561 44.2807 60.0673C44.4796 60.2243 44.7291 60.3028 44.982 60.2879C45.2349 60.2731 45.4735 60.166 45.6527 59.9869C45.6849 59.9516 45.7136 59.9131 45.7383 59.8721C45.7788 59.8511 45.8231 59.8384 45.8686 59.8349C45.9141 59.8313 45.9599 59.8371 46.0031 59.8517C46.025 59.8675 46.0432 59.8879 46.0563 59.9115C46.0694 59.9352 46.0771 59.9614 46.0788 59.9883C46.0144 60.1646 46.0092 60.3571 46.064 60.5366C46.1188 60.716 46.2307 60.8727 46.3826 60.9829C46.582 61.1392 46.8317 61.2171 47.0845 61.2018C47.3374 61.1866 47.5759 61.0793 47.7551 60.9002C47.8347 60.8114 47.8945 60.7068 47.9307 60.5931C47.9668 60.4794 47.9783 60.3594 47.9646 60.241C47.9508 60.1225 47.912 60.0083 47.8508 59.906C47.7896 59.8036 47.7073 59.7155 47.6095 59.6473C47.4106 59.4904 47.1611 59.4119 46.9082 59.4267C46.6553 59.4415 46.4167 59.5487 46.2375 59.7277C46.2053 59.7631 46.1766 59.8016 46.1519 59.8425C46.1305 59.8085 46.1017 59.7798 46.0676 59.7586C45.9876 59.7192 45.8961 59.7102 45.81 59.7331C45.879 59.5552 45.887 59.3594 45.8326 59.1765C45.7782 58.9936 45.6645 58.8339 45.5095 58.7227C45.3106 58.5658 45.0611 58.4873 44.8082 58.5021C44.5553 58.5169 44.3167 58.624 44.1375 58.8031C44.0954 58.8497 44.0585 58.9008 44.0275 58.9554L42.1952 58.0986C42.1805 58.0912 42.1633 58.0899 42.1476 58.095C42.1319 58.1002 42.1188 58.1113 42.1113 58.1261ZM46.3352 59.7932C46.492 59.6369 46.7005 59.5434 46.9214 59.5302C47.1424 59.5171 47.3605 59.5852 47.5347 59.7217C47.6202 59.7815 47.6921 59.8589 47.7456 59.9485C47.799 60.0382 47.8328 60.1382 47.8447 60.2419C47.8567 60.3456 47.8464 60.4507 47.8147 60.5502C47.783 60.6496 47.7305 60.7412 47.6607 60.8189C47.5039 60.9751 47.2953 61.0685 47.0743 61.0812C46.8534 61.094 46.6354 61.0253 46.4617 60.8881C46.3761 60.8285 46.3043 60.7515 46.2508 60.662C46.1973 60.5725 46.1634 60.4727 46.1515 60.3692C46.1395 60.2656 46.1497 60.1607 46.1814 60.0614C46.2131 59.9621 46.2655 59.8707 46.3352 59.7932ZM44.2328 58.8799C44.3896 58.7236 44.5981 58.6301 44.819 58.6169C45.04 58.6038 45.2581 58.6719 45.4323 58.8084C45.5179 58.8682 45.5897 58.9456 45.6432 59.0352C45.6966 59.1249 45.7304 59.2249 45.7424 59.3286C45.7543 59.4324 45.744 59.5374 45.7123 59.6369C45.6806 59.7363 45.6281 59.8279 45.5583 59.9056C45.4018 60.0623 45.1933 60.1562 44.9722 60.1693C44.7511 60.1825 44.5328 60.1141 44.3588 59.9771C44.2733 59.917 44.2014 59.8394 44.148 59.7495C44.0946 59.6596 44.0608 59.5594 44.0489 59.4556C44.0371 59.3517 44.0474 59.2464 44.0792 59.1468C44.1109 59.0472 44.1635 58.9555 44.2333 58.8776L44.2328 58.8799Z" fill="#263238"/>
<g opacity="0.3">
<path d="M42.1123 58.1261C42.1068 58.1378 42.1054 58.1511 42.1084 58.1637C42.1113 58.1764 42.1184 58.1877 42.1285 58.1958L42.1421 58.1986L43.9835 59.0574C43.9139 59.2349 43.9054 59.4306 43.9594 59.6135C44.0134 59.7964 44.1268 59.9561 44.2817 60.0673C44.4806 60.2243 44.7301 60.3028 44.983 60.2879C45.2359 60.2731 45.4745 60.166 45.6537 59.9869C45.6859 59.9516 45.7145 59.9131 45.7392 59.8721C45.7797 59.8511 45.8241 59.8384 45.8696 59.8349C45.9151 59.8313 45.9609 59.8371 46.0041 59.8517C46.026 59.8675 46.0442 59.8879 46.0572 59.9115C46.0703 59.9352 46.078 59.9614 46.0798 59.9883C46.0154 60.1646 46.0102 60.3571 46.065 60.5366C46.1198 60.716 46.2317 60.8727 46.3836 60.9829C46.583 61.1392 46.8327 61.2171 47.0855 61.2018C47.3384 61.1866 47.5769 61.0793 47.756 60.9002C47.8357 60.8114 47.8955 60.7068 47.9316 60.5931C47.9678 60.4794 47.9793 60.3594 47.9656 60.241C47.9518 60.1225 47.913 60.0083 47.8518 59.906C47.7906 59.8036 47.7083 59.7155 47.6104 59.6473C47.4116 59.4904 47.1621 59.4119 46.9092 59.4267C46.6563 59.4415 46.4177 59.5487 46.2385 59.7277C46.2063 59.7631 46.1776 59.8016 46.1529 59.8425C46.1315 59.8085 46.1027 59.7798 46.0686 59.7586C45.9886 59.7192 45.8971 59.7102 45.8109 59.7331C45.88 59.5552 45.888 59.3594 45.8336 59.1765C45.7792 58.9936 45.6655 58.8339 45.5104 58.7227C45.3116 58.5658 45.0621 58.4873 44.8092 58.5021C44.5563 58.5169 44.3177 58.624 44.1385 58.8031C44.0964 58.8497 44.0595 58.9008 44.0285 58.9554L42.1962 58.0986C42.1814 58.0912 42.1643 58.0899 42.1486 58.095C42.1329 58.1002 42.1198 58.1113 42.1123 58.1261ZM46.3362 59.7932C46.4929 59.6369 46.7014 59.5434 46.9224 59.5302C47.1433 59.5171 47.3615 59.5852 47.5357 59.7217C47.6212 59.7815 47.6931 59.8589 47.7466 59.9485C47.8 60.0382 47.8338 60.1382 47.8457 60.2419C47.8576 60.3456 47.8474 60.4507 47.8157 60.5502C47.7839 60.6496 47.7314 60.7412 47.6617 60.8189C47.5049 60.9751 47.2963 61.0685 47.0753 61.0812C46.8543 61.094 46.6364 61.0253 46.4627 60.8881C46.3771 60.8285 46.3052 60.7515 46.2517 60.662C46.1983 60.5725 46.1644 60.4727 46.1525 60.3692C46.1405 60.2656 46.1507 60.1607 46.1824 60.0614C46.214 59.9621 46.2665 59.8707 46.3362 59.7932ZM44.2338 58.8799C44.3906 58.7236 44.5991 58.6301 44.82 58.6169C45.0409 58.6038 45.2591 58.6719 45.4333 58.8084C45.5188 58.8682 45.5907 58.9456 45.6442 59.0352C45.6976 59.1249 45.7314 59.2249 45.7433 59.3286C45.7553 59.4324 45.745 59.5374 45.7133 59.6369C45.6816 59.7363 45.6291 59.8279 45.5593 59.9056C45.4028 60.0623 45.1942 60.1562 44.9731 60.1693C44.7521 60.1825 44.5338 60.1141 44.3598 59.9771C44.2742 59.917 44.2024 59.8394 44.1489 59.7495C44.0955 59.6596 44.0618 59.5594 44.0499 59.4556C44.0381 59.3517 44.0483 59.2464 44.0801 59.1468C44.1119 59.0472 44.1644 58.9555 44.2343 58.8776L44.2338 58.8799Z" fill="white"/>
</g>
<path d="M42.4454 59.1107C42.5412 58.8954 42.5477 58.651 42.4636 58.4309C42.3795 58.2109 42.2116 58.0331 41.9967 57.9366C41.4126 57.6936 40.5263 58.6811 41.7499 59.7068C41.9251 59.8548 42.1422 59.7225 42.4454 59.1107Z" fill="#EBB376"/>
<path d="M37.537 64.1853C37.537 64.1853 36.7496 69.0858 36.9327 70.2613C37.1158 71.4367 40.5625 76.3458 40.5625 76.3458C40.5625 76.3458 41.8142 76.3302 41.9956 76.4487C42.1769 76.5672 43.0976 77.8636 43.0976 77.8636L39.7971 77.1737L39.6151 76.605C39.6151 76.605 35.8668 72.391 35.5424 71.5059C35.3025 70.8516 35.3749 64.7142 35.3749 64.7142L37.537 64.1853Z" fill="#EBB376"/>
<path d="M37.1788 61.5171C38.0318 61.2784 38.1283 62.6419 38.0539 65.3437C37.9894 67.0477 37.7691 68.7423 37.396 70.4063L37.8099 71.7129L35.8285 72.8955C35.205 71.9776 34.7994 70.9293 34.6426 69.8307C34.457 68.1573 34.193 62.3594 37.1788 61.5171Z" fill="#263238"/>
<path opacity="0.1" d="M37.1788 61.5171C38.0318 61.2784 38.1283 62.6419 38.0539 65.3437C37.9894 67.0477 37.7691 68.7423 37.396 70.4063L37.8099 71.7129L35.8285 72.8955C35.205 71.9776 34.7994 70.9293 34.6426 69.8307C34.457 68.1573 34.193 62.3594 37.1788 61.5171Z" fill="white"/>
<path d="M35.3971 72.8068L37.8837 71.372L38.2338 72.1678L35.9768 73.615L35.3971 72.8068Z" fill="#407BFF"/>
<path opacity="0.4" d="M35.3971 72.8068L37.8837 71.372L38.2338 72.1678L35.9768 73.615L35.3971 72.8068Z" fill="white"/>
</g>
<defs>
<filter id="filter0_dddd_2676_6256" x="0.000189781" y="13.4291" width="135.168" height="125.668" filterUnits="userSpaceOnUse" color-interpolation-filters="sRGB">
<feFlood flood-opacity="0" result="BackgroundImageFix"/>
<feColorMatrix in="SourceAlpha" type="matrix" values="0 0 0 0 0 0 0 0 0 0 0 0 0 0 0 0 0 0 127 0" result="hardAlpha"/>
<feOffset dy="1.91124"/>
<feGaussianBlur stdDeviation="1.91124"/>
<feColorMatrix type="matrix" values="0 0 0 0 0 0 0 0 0 0 0 0 0 0 0 0 0 0 0.1 0"/>
<feBlend mode="normal" in2="BackgroundImageFix" result="effect1_dropShadow_2676_6256"/>
<feColorMatrix in="SourceAlpha" type="matrix" values="0 0 0 0 0 0 0 0 0 0 0 0 0 0 0 0 0 0 127 0" result="hardAlpha"/>
<feOffset dy="7.00789"/>
<feGaussianBlur stdDeviation="3.50395"/>
<feColorMatrix type="matrix" values="0 0 0 0 0 0 0 0 0 0 0 0 0 0 0 0 0 0 0.09 0"/>
<feBlend mode="normal" in2="effect1_dropShadow_2676_6256" result="effect2_dropShadow_2676_6256"/>
<feColorMatrix in="SourceAlpha" type="matrix" values="0 0 0 0 0 0 0 0 0 0 0 0 0 0 0 0 0 0 127 0" result="hardAlpha"/>
<feOffset dy="15.2899"/>
<feGaussianBlur stdDeviation="4.77811"/>
<feColorMatrix type="matrix" values="0 0 0 0 0 0 0 0 0 0 0 0 0 0 0 0 0 0 0.05 0"/>
<feBlend mode="normal" in2="effect2_dropShadow_2676_6256" result="effect3_dropShadow_2676_6256"/>
<feColorMatrix in="SourceAlpha" type="matrix" values="0 0 0 0 0 0 0 0 0 0 0 0 0 0 0 0 0 0 127 0" result="hardAlpha"/>
<feOffset dy="27.3945"/>
<feGaussianBlur stdDeviation="5.41519"/>
<feColorMatrix type="matrix" values="0 0 0 0 0 0 0 0 0 0 0 0 0 0 0 0 0 0 0.01 0"/>
<feBlend mode="normal" in2="effect3_dropShadow_2676_6256" result="effect4_dropShadow_2676_6256"/>
<feBlend mode="normal" in="SourceGraphic" in2="effect4_dropShadow_2676_6256" result="shape"/>
</filter>
</defs>
</svg>
