<svg class="text-2xl sm:text-3xl lg:text-4xl font-bold mb-4 sm:mb-6 leading-tight bg-gradient-to-r from-[#22D3EE] to-[#274B8F] bg-clip-text text-transparent custom-shadow" width="443" height="75" viewBox="0 0 443 75" fill="none" xmlns="http://www.w3.org/2000/svg">
                        <g filter="url(#filter0_d_3904_4590)">
                        <path d="M418.931 43.3685C410.451 40.1309 400.88 43.3685 398.311 44.7175C407.561 43.9466 409.102 44.7175 417.196 48.3789C427.802 53.1767 434.219 43.24 435.89 39.707C433.705 41.6983 427.41 46.606 418.931 43.3685Z" fill="white" stroke="white" stroke-width="0.552937"/>
                        <path d="M413.152 50.3082C405.289 46.6082 400.561 45.7473 399.083 46.2612C402.552 48.9591 409.914 54.9331 416.235 56.4747C422.556 58.0164 429.853 53.5199 432.808 49.5372C429.147 52.1067 421.014 54.0082 413.152 50.3082Z" fill="white" stroke="white" stroke-width="0.552937"/>
                        <path d="M419.723 35.1217C410.551 31.9556 401.566 39.5331 398.362 43.2482C400.176 41.1537 406.387 37.5943 416.717 40.1125C427.047 42.6306 433.64 36.6699 435.662 33.6634C434.539 34.3043 429.364 38.4497 419.723 35.1217Z" fill="white" stroke="white" stroke-width="0.552937"/>
                        <ellipse cx="425.091" cy="22.75" rx="7.51579" ry="7.51565" fill="#FF0000"/>
                        <path d="M6.47359 17.0179H21.6241C25.8632 17.0179 29.5126 17.792 32.5722 19.3403C35.6318 20.8885 37.9726 23.1187 39.5945 26.0308C41.2165 28.9429 42.0274 32.4264 42.0274 36.4813C42.0274 40.5362 41.2165 44.0381 39.5945 46.9871C38.0094 49.8993 35.6871 52.1294 32.6275 53.6777C29.5679 55.2259 25.9001 56 21.6241 56H6.47359L6.47359 17.0179ZM21.0158 49.033C29.3099 49.033 33.4569 44.8491 33.4569 36.4813C33.4569 28.1504 29.3099 23.9849 21.0158 23.9849H15.0994L15.0994 49.033H21.0158ZM61.0316 56.4423C58.1564 56.4423 55.6313 55.871 53.4564 54.7282C51.2815 53.5486 49.6043 51.9083 48.4247 49.8071C47.2451 47.6691 46.6553 45.1624 46.6553 42.2872C46.6553 39.4119 47.2451 36.9237 48.4247 34.8225C49.6043 32.6845 51.2815 31.0441 53.4564 29.9014C55.6313 28.7586 58.1564 28.1873 61.0316 28.1873C63.9069 28.1873 66.432 28.7586 68.6069 29.9014C70.7818 31.0441 72.459 32.6845 73.6386 34.8225C74.8182 36.9237 75.408 39.4119 75.408 42.2872C75.408 45.1624 74.8182 47.6691 73.6386 49.8071C72.459 51.9083 70.7818 53.5486 68.6069 54.7282C66.432 55.871 63.9069 56.4423 61.0316 56.4423ZM61.0316 50.0836C65.0865 50.0836 67.1139 47.4848 67.1139 42.2872C67.1139 39.6699 66.5794 37.7162 65.5104 36.426C64.4783 35.1358 62.9853 34.4907 61.0316 34.4907C56.9768 34.4907 54.9493 37.0896 54.9493 42.2872C54.9493 47.4848 56.9768 50.0836 61.0316 50.0836ZM93.4277 56.4423C89.0042 56.4423 85.5207 55.189 82.9772 52.6824C80.4337 50.1757 79.1619 46.766 79.1619 42.453C79.1619 39.6146 79.7702 37.1264 80.9866 34.9884C82.2031 32.8135 83.9172 31.1363 86.1289 29.9567C88.3407 28.7771 90.9026 28.1873 93.8148 28.1873C95.8053 28.1873 97.7222 28.5006 99.5653 29.1273C101.408 29.7171 102.901 30.528 104.044 31.5602L101.832 37.2554C100.763 36.4076 99.5837 35.7625 98.2935 35.3202C97.0402 34.8409 95.8053 34.6013 94.5889 34.6013C92.414 34.6013 90.7183 35.2464 89.5018 36.5366C88.3222 37.8268 87.7324 39.7436 87.7324 42.2872C87.7324 44.8307 88.3222 46.766 89.5018 48.093C90.7183 49.3832 92.414 50.0283 94.5889 50.0283C95.8053 50.0283 97.0402 49.8071 98.2935 49.3648C99.5837 48.8855 100.763 48.222 101.832 47.3742L104.044 53.1247C102.828 54.1569 101.279 54.9679 99.3994 55.5577C97.5194 56.1474 95.5289 56.4423 93.4277 56.4423ZM133.966 28.8508V56H125.838V52.1294C124.99 53.5302 123.865 54.5992 122.465 55.3365C121.101 56.0737 119.553 56.4423 117.82 56.4423C114.392 56.4423 111.83 55.5024 110.134 53.6224C108.475 51.7055 107.646 48.8302 107.646 44.9966V28.8508H115.995V45.1624C115.995 46.7844 116.327 47.9824 116.991 48.7565C117.691 49.5306 118.742 49.9177 120.142 49.9177C121.764 49.9177 123.073 49.3648 124.068 48.2589C125.1 47.153 125.616 45.6969 125.616 43.8907V28.8508H133.966ZM155.412 50.3047C156.26 50.3047 157.145 50.2495 158.066 50.1389L157.624 56.2212C156.555 56.3686 155.486 56.4423 154.417 56.4423C150.288 56.4423 147.266 55.5392 145.349 53.733C143.469 51.9267 142.529 49.1804 142.529 45.4942V35.099H137.387V28.8508H142.529V20.8885L150.878 20.8885V28.8508H157.679V35.099H150.878V45.4389C150.878 48.6828 152.39 50.3047 155.412 50.3047ZM181.164 35.0437L176.464 35.5413C174.141 35.7625 172.501 36.426 171.543 37.5319C170.584 38.6009 170.105 40.0385 170.105 41.8448V56H161.756V28.8508H169.773V33.4402C171.137 30.3069 173.957 28.5927 178.233 28.2978L180.666 28.132L181.164 35.0437ZM196.003 28.1873C200.058 28.1873 203.043 29.1457 204.96 31.0625C206.914 32.9794 207.891 35.9468 207.891 39.9648V56H199.984V51.9636C199.431 53.3643 198.509 54.4702 197.219 55.2812C195.929 56.0553 194.418 56.4423 192.685 56.4423C190.842 56.4423 189.165 56.0737 187.653 55.3365C186.179 54.5992 184.999 53.5671 184.115 52.24C183.267 50.913 182.843 49.4385 182.843 47.8165C182.843 45.826 183.34 44.2593 184.336 43.1166C185.368 41.9738 187.008 41.1444 189.257 40.6283C191.505 40.1123 194.583 39.8542 198.491 39.8542H199.929V38.859C199.929 37.237 199.578 36.0943 198.878 35.4307C198.178 34.7672 196.961 34.4355 195.229 34.4355C193.902 34.4355 192.427 34.6751 190.805 35.1543C189.183 35.6335 187.635 36.297 186.16 37.1448L183.949 31.5602C185.497 30.6018 187.395 29.8092 189.644 29.1826C191.929 28.519 194.049 28.1873 196.003 28.1873ZM194.51 50.6918C196.132 50.6918 197.44 50.1573 198.436 49.0883C199.431 47.9824 199.929 46.5632 199.929 44.8307V43.8907H198.989C196.003 43.8907 193.902 44.1303 192.685 44.6095C191.505 45.0887 190.916 45.955 190.916 47.2083C190.916 48.2036 191.247 49.033 191.911 49.6965C192.611 50.36 193.478 50.6918 194.51 50.6918ZM227.072 56.4423C222.649 56.4423 219.165 55.189 216.622 52.6824C214.078 50.1757 212.806 46.766 212.806 42.453C212.806 39.6146 213.415 37.1264 214.631 34.9884C215.848 32.8135 217.562 31.1363 219.773 29.9567C221.985 28.7771 224.547 28.1873 227.459 28.1873C229.45 28.1873 231.367 28.5006 233.21 29.1273C235.053 29.7171 236.546 30.528 237.689 31.5602L235.477 37.2554C234.408 36.4076 233.228 35.7625 231.938 35.3202C230.685 34.8409 229.45 34.6013 228.233 34.6013C226.058 34.6013 224.363 35.2464 223.146 36.5366C221.967 37.8268 221.377 39.7436 221.377 42.2872C221.377 44.8307 221.967 46.766 223.146 48.093C224.363 49.3832 226.058 50.0283 228.233 50.0283C229.45 50.0283 230.685 49.8071 231.938 49.3648C233.228 48.8855 234.408 48.222 235.477 47.3742L237.689 53.1247C236.472 54.1569 234.924 54.9679 233.044 55.5577C231.164 56.1474 229.173 56.4423 227.072 56.4423ZM260.201 56L249.806 43.8907V56H241.456V17.0179H249.806V40.4625L259.814 28.9061H269.767L258.376 41.8448L270.43 56H260.201ZM288.396 17.0179H306.311C310.55 17.0179 313.849 18.0869 316.209 20.225C318.568 22.363 319.747 25.3489 319.747 29.1826C319.747 33.0162 318.568 36.0021 316.209 38.1401C313.849 40.2782 310.55 41.3472 306.311 41.3472H297.022V56L288.396 56V17.0179ZM305.205 34.8225C309.518 34.8225 311.675 32.961 311.675 29.2378C311.675 27.321 311.14 25.9018 310.071 24.9802C309.002 24.0587 307.38 23.5979 305.205 23.5979H297.022V34.8225H305.205ZM359.17 17.0179V56H352.756L333.348 31.1731V56H325.33V17.0179H331.689L351.097 41.7342V17.0179H359.17ZM362.817 49.6412L367.019 49.3648C368.494 49.291 369.581 48.8855 370.282 48.1483C370.982 47.3742 371.332 46.2314 371.332 44.7201V17.0179H380.013V44.6095C380.013 51.9451 376.161 55.8341 368.457 56.2765L363.315 56.5529L362.817 49.6412Z" fill="#33ABA0"/>
                        </g>
                        <defs>
                        <filter id="filter0_d_3904_4590" x="6.05583e-05" y="15.2344" width="442.613" height="54.7748" filterUnits="userSpaceOnUse" color-interpolation-filters="sRGB">
                        <feFlood flood-opacity="0" result="BackgroundImageFix"/>
                        <feColorMatrix in="SourceAlpha" type="matrix" values="0 0 0 0 0 0 0 0 0 0 0 0 0 0 0 0 0 0 127 0" result="hardAlpha"/>
                        <feOffset dy="6.47357"/>
                        <feGaussianBlur stdDeviation="3.23679"/>
                        <feComposite in2="hardAlpha" operator="out"/>
                        <feColorMatrix type="matrix" values="0 0 0 0 0 0 0 0 0 0 0 0 0 0 0 0 0 0 0.25 0"/>
                        <feBlend mode="normal" in2="BackgroundImageFix" result="effect1_dropShadow_3904_4590"/>
                        <feBlend mode="normal" in="SourceGraphic" in2="effect1_dropShadow_3904_4590" result="shape"/>
                        </filter>
                        </defs>
                        </svg> 