<svg style="height: 800px; width: 100%;" viewBox="0 0 1440 601" fill="none" xmlns="http://www.w3.org/2000/svg">
                    <g opacity="0.4">
                    <path d="M1440.5 43.5098C1072.45 130.01 1111.2 323.596 1042.24 409.51C956.047 516.902 444.572 663.545 641.854 436.478C839.135 209.411 821.62 -123.474 655.221 86.9019C488.822 297.277 374.049 615.046 232.08 516.786C90.1106 418.527 120.994 571.585 -2.99883 559.302" stroke="#18ADD8" stroke-width="40"/>
                    <path d="M1440.5 86.9019C1104.67 182.902 1163.56 323.437 1094.6 409.51C1008.41 517.101 451.881 699.737 649.162 472.249C846.444 244.762 828.928 -88.7394 662.529 122.026C496.131 332.791 381.357 651.148 239.388 552.706C97.4192 454.265 128.302 607.606 4.30969 595.301" stroke="#18ADD8" stroke-width="10"/>
                    </g>
                    </svg>