    <svg viewBox="0 0 1440 602" fill="none" xmlns="http://www.w3.org/2000/svg" preserveAspectRatio="none" >
        <path d="M0 43.5103C367.157 130.01 328.504 323.596 397.293 409.51C483.28 516.903 993.514 663.545 796.711 436.478C599.907 209.411 617.381 -123.473 783.376 86.9024C949.371 297.278 1063.87 615.046 1205.49 516.787C1347.12 418.528 1316.31 571.585 1440 559.303" stroke="#18ADD8" stroke-opacity="0.5" stroke-width="40"/>
        <path d="M0 86.9024C335.012 182.902 276.268 323.437 345.058 409.51C431.044 517.101 986.223 699.737 789.42 472.25C592.617 244.762 610.09 -88.7389 776.085 122.026C942.08 332.791 1056.58 651.148 1198.2 552.707C1339.83 454.266 1309.02 607.607 1432.71 595.302" stroke="#18ADD8" stroke-opacity="0.5" stroke-width="10"/>
    </svg>